<?xml version="1.0" standalone="no"?>
<!DOCTYPE svg PUBLIC "-//W3C//DTD SVG 20010904//EN"
 "http://www.w3.org/TR/2001/REC-SVG-20010904/DTD/svg10.dtd">
<svg version="1.0" xmlns="http://www.w3.org/2000/svg"
 width="1024.000000pt" height="1024.000000pt" viewBox="0 0 1024.000000 1024.000000"
 preserveAspectRatio="xMidYMid meet">

<g transform="translate(0.000000,1024.000000) scale(0.100000,-0.100000)"
fill="#000000" stroke="none">
<path d="M7978 8462 c-133 -204 -394 -487 -608 -659 -309 -250 -755 -487
-1065 -568 -54 -14 -105 -25 -114 -25 -10 0 -71 -60 -137 -135 -112 -127 -120
-139 -129 -193 l-11 -57 -7 64 c-11 98 -9 120 14 152 l20 29 -26 10 c-15 6
-47 15 -71 21 -27 7 -43 17 -42 25 2 7 -1 13 -6 12 -5 0 -13 6 -17 14 -7 11
-9 11 -9 -1 0 -8 -6 -11 -16 -7 -9 4 -13 2 -8 -5 5 -8 -4 -10 -30 -5 -109 19
-101 20 -112 -11 -9 -25 -2 -45 67 -183 l77 -156 194 -48 c308 -77 570 -166
793 -270 l95 -45 -5 -38 c-44 -317 -89 -560 -104 -576 -4 -4 -17 0 -29 10 -20
17 -20 20 -7 70 18 67 63 337 71 428 6 69 6 70 -22 87 -31 17 -237 101 -366
148 -146 53 -534 160 -582 160 -10 0 -6 -23 18 -92 18 -51 38 -103 45 -115 21
-40 4 -25 -36 31 -21 30 -66 75 -100 100 -59 45 -95 82 -118 121 -11 18 -149
42 -364 64 -114 11 -260 -1 -480 -40 l-113 -20 -139 -140 c-124 -125 -137
-136 -120 -97 27 61 59 168 50 168 -21 0 -287 -73 -394 -108 -190 -63 -485
-184 -485 -199 0 -19 52 -339 72 -442 21 -111 21 -114 3 -127 -35 -25 -29 -39
-71 181 -26 136 -64 383 -64 414 0 38 395 196 700 281 102 29 208 58 235 66
l50 14 78 164 c68 140 77 167 68 185 -8 14 -21 21 -40 21 -27 0 -273 -64 -293
-76 -5 -3 0 -16 13 -30 24 -25 27 -75 10 -159 l-9 -40 -1 42 c-1 45 9 32 -164
222 -43 46 -77 87 -77 91 0 4 -42 18 -92 30 -158 38 -316 98 -495 186 -468
231 -912 610 -1204 1028 -43 62 -55 73 -60 58 -18 -49 -42 -301 -42 -447 0
-383 72 -549 338 -785 l60 -53 -115 60 c-63 34 -150 79 -192 102 -50 27 -78
37 -78 29 0 -7 7 -53 15 -103 42 -241 119 -449 205 -547 75 -86 205 -161 355
-204 l50 -14 -65 5 c-36 3 -121 13 -188 21 -68 9 -126 13 -128 11 -7 -7 50
-101 107 -178 154 -209 323 -297 574 -300 l100 -1 -60 -19 c-33 -10 -95 -26
-137 -36 -43 -9 -78 -19 -78 -23 0 -9 79 -73 125 -102 62 -38 124 -60 190 -67
l60 -6 -38 -26 -39 -27 -59 24 c-100 39 -182 89 -257 159 -40 37 -72 71 -72
76 0 5 14 9 30 9 39 0 39 17 -1 25 -20 5 -34 3 -39 -5 -4 -6 -20 -71 -35 -145
-20 -91 -33 -131 -41 -128 -7 2 -15 -1 -20 -8 -4 -7 -3 -10 4 -5 21 13 22 -14
7 -131 -20 -150 -30 -416 -20 -556 l7 -108 31 19 c24 14 31 25 29 44 -3 33
104 158 211 245 l79 64 -2 187 c-1 103 -3 198 -3 211 -1 13 4 25 11 27 7 1 8
0 2 -3 -12 -5 -14 -33 -2 -33 4 0 6 -85 4 -190 -2 -104 1 -190 5 -189 4 0 35
17 68 38 50 31 67 49 100 109 22 39 50 84 62 99 l22 28 0 -27 c1 -15 -4 -30
-9 -33 -6 -4 -30 -44 -53 -90 -39 -78 -47 -87 -117 -133 -118 -76 -224 -167
-280 -238 -43 -54 -50 -67 -40 -79 7 -9 11 -17 9 -19 -14 -11 -135 -97 -252
-180 -75 -54 -137 -103 -137 -110 0 -19 107 -186 142 -223 30 -31 126 -70 216
-88 37 -8 37 -7 17 41 l-15 36 33 -7 c17 -4 41 -9 51 -12 18 -5 19 -1 13 56
-3 33 -4 61 -4 61 1 0 31 -9 65 -19 35 -11 70 -17 78 -14 19 7 18 47 -1 63
-27 22 -16 30 44 30 51 0 61 -3 75 -25 19 -30 23 -66 4 -47 -7 7 -22 12 -33
12 -18 0 -21 -5 -17 -31 5 -34 -8 -49 -45 -49 -29 0 -29 -13 -1 -32 l22 -15
-27 -17 c-26 -18 -28 -17 -71 8 -25 14 -46 26 -48 26 -2 0 -2 -18 0 -40 5 -45
-1 -48 -43 -20 -16 11 -32 20 -35 20 -3 0 -3 -26 0 -57 7 -64 37 -139 66 -165
25 -22 113 -45 201 -53 l68 -6 33 49 c18 27 44 60 58 73 24 22 26 23 38 7 10
-14 28 -18 82 -18 l69 0 110 -110 110 -110 57 0 c32 0 58 3 58 7 0 4 -55 64
-122 133 l-123 125 135 -131 135 -132 277 7 277 6 -58 75 c-32 41 -83 112
-113 157 -58 86 -69 95 -288 240 -106 70 -125 77 -110 37 15 -39 12 -44 -17
-32 -40 16 -196 13 -276 -5 -38 -8 -65 -11 -59 -5 17 17 172 66 233 73 32 4
59 11 59 16 0 6 -9 28 -21 50 -11 23 -18 43 -16 46 12 11 199 -104 329 -204
31 -23 59 -43 62 -43 4 0 -18 48 -48 108 -58 114 -99 212 -93 219 3 2 20 -5
39 -17 27 -15 42 -36 63 -88 33 -79 124 -254 173 -332 20 -30 76 -110 126
-177 l91 -123 127 0 127 0 20 45 c12 27 26 45 36 45 9 0 14 -4 10 -9 -3 -5 0
-13 6 -17 8 -4 9 -3 5 4 -10 16 -3 15 118 -13 58 -14 115 -25 126 -25 11 0 20
-4 20 -10 0 -6 27 -10 63 -9 47 0 57 3 42 10 -16 7 -14 8 9 3 111 -22 446 -31
506 -14 22 6 38 6 44 0 6 -6 23 -10 38 -10 24 0 40 16 116 118 49 66 112 158
141 205 50 84 181 345 181 363 0 5 18 19 40 31 22 12 40 18 40 14 0 -15 -52
-136 -97 -225 -34 -68 -40 -86 -25 -75 166 119 372 249 372 235 0 -2 -11 -28
-25 -57 l-24 -54 83 -12 c75 -11 197 -51 219 -73 5 -4 -20 -2 -55 6 -113 24
-188 27 -256 11 l-64 -15 6 23 c3 13 9 31 13 41 5 13 3 15 -8 9 -24 -14 -231
-152 -277 -184 -40 -27 -82 -71 -82 -85 0 -3 -29 -46 -65 -95 -36 -50 -65 -92
-65 -95 0 -2 -13 -18 -30 -36 -16 -18 -30 -36 -30 -41 0 -5 80 -9 178 -9 99 0
220 -3 271 -7 l92 -6 173 172 c128 127 177 170 189 165 11 -4 17 -1 17 9 0 9
-8 18 -17 20 -13 3 -12 5 5 6 19 1 23 -3 20 -21 -2 -16 -10 -23 -25 -23 -16 0
-70 -48 -178 -155 -85 -85 -155 -158 -155 -161 0 -3 66 -9 146 -12 l147 -5 24
29 c14 16 29 29 34 29 6 0 -3 -11 -18 -24 -15 -13 -26 -27 -23 -30 3 -2 111
-8 241 -12 l236 -7 31 55 c18 31 32 58 32 61 0 13 -66 -6 -86 -24 -11 -11 -27
-19 -35 -19 -12 0 -12 2 1 10 25 15 8 18 -63 11 -67 -7 -68 -7 -91 24 -19 25
-31 31 -58 30 -24 -2 -26 -1 -5 2 15 2 27 6 27 9 0 13 -57 74 -70 75 -10 0
-11 2 -2 6 6 2 12 11 12 19 0 31 41 12 80 -37 22 -28 44 -58 49 -67 18 -32
234 -1 278 39 30 29 63 119 63 175 l0 45 -30 -16 c-45 -23 -53 -20 -46 20 8
40 2 42 -39 15 -32 -22 -61 -25 -85 -10 -12 7 -11 13 10 34 l23 26 -22 0 c-12
0 -31 5 -43 11 -16 9 -19 17 -13 45 6 37 1 40 -39 24 -30 -11 -31 -9 -11 29
12 24 22 29 67 34 29 2 55 3 57 1 3 -3 -3 -18 -12 -33 -35 -60 -1 -75 97 -41
l58 19 -7 -64 -7 -64 52 14 c48 13 51 12 44 -3 -4 -9 -9 -30 -12 -46 -4 -22
-1 -28 9 -24 8 3 53 17 102 32 56 17 99 37 121 57 33 28 122 158 148 213 14
31 31 16 -198 171 -192 128 -202 138 -184 160 26 31 -112 171 -280 284 -94 64
-120 87 -134 119 -10 22 -31 59 -47 83 -16 24 -29 58 -29 74 l0 30 31 -45 c16
-25 43 -70 59 -101 25 -48 39 -62 92 -92 l63 -35 6 86 5 87 2 -92 c2 -89 3
-92 31 -112 16 -12 32 -21 35 -21 3 0 7 84 8 186 l3 186 35 26 35 25 -32 -29
-33 -29 -1 -190 -1 -190 38 -30 c22 -16 69 -66 106 -110 50 -60 68 -88 68
-110 0 -23 7 -35 31 -49 17 -10 33 -15 37 -11 10 9 18 453 10 495 -4 19 -14
91 -23 160 -9 69 -32 194 -51 277 -19 84 -34 155 -34 159 0 8 -63 -6 -75 -17
-5 -5 4 -9 23 -9 18 0 32 -4 32 -9 0 -13 -61 -85 -100 -118 -58 -50 -128 -90
-206 -119 -74 -27 -76 -27 -112 -9 l-37 18 70 16 c101 25 171 60 249 126 l69
59 -94 17 c-52 9 -119 24 -149 32 l-55 15 70 1 c318 5 510 122 688 417 20 34
37 67 37 73 0 12 -17 10 -228 -20 -74 -10 -139 -19 -145 -19 -7 0 33 16 87 34
114 40 244 122 306 194 61 71 116 194 154 344 39 153 67 318 54 318 -5 0 -86
-42 -181 -94 -95 -51 -188 -101 -207 -110 l-35 -17 35 27 c81 64 205 194 250
261 85 126 119 271 120 503 0 80 -5 184 -10 230 -14 115 -52 320 -59 319 -3 0
-32 -39 -63 -87z m53 -270 c24 -246 0 -464 -67 -600 -26 -52 -194 -242 -215
-242 -4 0 7 33 26 73 46 100 74 220 82 351 l6 110 -89 -81 c-49 -45 -122 -109
-161 -142 -94 -78 -381 -281 -503 -355 -52 -32 -103 -65 -112 -74 -10 -8 -18
-13 -18 -11 0 3 18 48 40 102 21 53 44 115 50 137 9 32 22 49 57 73 112 77
255 186 339 258 131 112 376 370 464 486 88 117 80 123 101 -85z m-5676 18
c179 -223 489 -502 755 -680 75 -50 74 -49 96 -115 9 -27 31 -83 50 -124 19
-41 34 -75 34 -77 0 -8 -192 109 -330 201 -167 112 -374 272 -482 374 -67 62
-68 63 -68 35 1 -58 30 -231 50 -299 12 -38 35 -96 51 -127 16 -32 24 -58 19
-58 -5 0 -47 37 -92 83 -127 127 -177 246 -198 477 -10 106 -7 311 7 404 l5
40 22 -29 c11 -17 48 -63 81 -105z m5449 -455 c-9 -14 -18 -25 -21 -25 -5 0 5
18 20 38 17 22 18 13 1 -13z m-33 -8 c-10 -9 -11 -8 -5 6 3 10 9 15 12 12 3
-3 0 -11 -7 -18z m-5088 -177 c3 6 4 5 3 -2 -2 -7 7 -22 18 -32 17 -15 17 -18
4 -13 -11 4 -18 1 -19 -6 0 -9 -2 -9 -6 1 -2 6 -9 10 -13 7 -5 -3 -7 -12 -4
-19 5 -12 -10 -20 -53 -31 -7 -2 -16 1 -19 7 -4 5 4 8 17 6 15 -2 24 2 23 10
-4 47 -4 48 -14 32 -7 -11 -10 -11 -10 -2 0 7 -5 10 -12 6 -6 -4 -8 -3 -4 4 3
5 0 13 -6 16 -7 3 -1 3 14 1 15 -2 29 0 31 3 2 4 3 2 1 -4 -1 -6 2 -17 7 -25
7 -12 11 -11 25 3 16 16 16 18 1 24 -9 3 -17 11 -17 16 0 6 6 6 14 -1 10 -8
16 -9 19 -1z m5004 -12 c-3 -8 -6 -5 -6 6 -1 11 2 17 5 13 3 -3 4 -12 1 -19z
m-5123 -23 c-4 -8 -11 -12 -16 -9 -6 4 -5 10 3 15 19 12 19 11 13 -6z m5123
-37 c-3 -8 -6 -5 -6 6 -1 11 2 17 5 13 3 -3 4 -12 1 -19z m-5147 -8 c0 -11 -2
-20 -4 -20 -2 0 -6 9 -9 20 -3 11 -1 20 4 20 5 0 9 -9 9 -20z m17 -2 c-3 -8
-6 -5 -6 6 -1 11 2 17 5 13 3 -3 4 -12 1 -19z m49 -40 c-14 -9 -16 -37 -4 -45
6 -3 8 -1 5 4 -4 6 0 16 8 23 13 11 15 9 11 -11 -2 -13 3 -32 12 -41 13 -15
13 -18 1 -18 -20 0 -119 68 -126 86 -9 23 6 30 21 9 10 -14 15 -15 21 -5 5 9
4 11 -3 6 -18 -11 -14 2 5 22 17 16 19 16 38 -3 11 -11 16 -23 11 -27z m5176
29 c-5 -20 -108 -94 -118 -84 -3 3 4 8 15 12 12 3 18 11 15 17 -4 6 1 17 11
25 18 13 18 13 -1 14 -18 0 -18 1 1 9 11 5 16 9 12 9 -5 1 -6 4 -4 9 3 4 21 7
40 7 28 1 33 -3 29 -18z m-5107 -6 c3 -5 2 -12 -3 -15 -5 -3 -9 1 -9 9 0 17 3
19 12 6z m4299 -46 c-20 -52 -344 -239 -636 -368 -62 -27 -110 -73 -186 -175
-45 -61 -48 -63 -82 -57 -66 13 -66 16 -3 96 33 41 84 100 114 131 50 53 64
61 175 102 153 56 334 138 489 220 132 71 137 73 129 51z m-4305 -8 c-2 -2
-11 -8 -20 -15 -12 -9 -16 -9 -16 1 0 7 9 14 20 14 11 1 18 1 16 0z m996 -180
c150 -64 337 -137 352 -137 18 0 233 -241 233 -261 0 -11 -79 -32 -96 -25 -8
3 -14 2 -14 -2 0 -15 -92 -34 -104 -22 -8 8 -6 9 7 4 9 -3 24 -1 32 6 8 7 15
9 15 4 0 -5 4 -2 10 6 6 9 5 17 -3 22 -7 4 -3 6 10 5 17 -1 19 -4 11 -14 -7
-9 -7 -13 0 -13 20 0 19 25 -1 55 -73 107 -109 136 -237 197 -69 33 -161 77
-206 99 -111 52 -250 134 -301 176 -24 19 -47 32 -51 29 -8 -5 -32 34 -32 50
0 3 51 -22 113 -55 61 -33 180 -89 262 -124z m-615 76 c11 3 30 -3 42 -12 21
-18 21 -18 -25 -18 -26 0 -45 2 -42 5 3 3 -3 15 -12 26 -17 19 -17 20 -1 7 10
-7 27 -11 38 -8z m-194 -18 c-3 -23 -22 -39 -31 -26 -3 7 -1 10 6 9 7 -2 14 3
15 10 2 19 4 22 8 22 2 0 3 -7 2 -15z m4399 5 c3 -5 1 -10 -4 -10 -6 0 -11 5
-11 10 0 6 2 10 4 10 3 0 8 -4 11 -10z m785 -17 c0 -32 -48 -218 -75 -288 -39
-104 -80 -168 -145 -229 -56 -51 -186 -125 -250 -141 -24 -6 -24 -6 4 13 69
48 172 208 216 336 l18 54 -66 -30 c-37 -17 -143 -61 -237 -99 -112 -46 -170
-74 -169 -83 1 -8 -4 -12 -12 -9 -9 3 -14 -2 -14 -15 0 -11 6 -23 13 -25 6 -3
1 -6 -12 -6 -20 -1 -22 -3 -11 -16 11 -13 10 -14 -6 -8 -17 6 -17 5 -5 -10 12
-15 12 -17 -3 -11 -10 4 -16 1 -16 -8 0 -8 -9 -23 -20 -33 -11 -10 -20 -15
-20 -10 0 4 -8 1 -17 -6 -10 -8 -3 3 14 24 41 47 61 87 102 203 l32 91 82 33
c45 18 195 90 332 160 138 70 253 128 258 129 4 0 7 -7 7 -16z m-5413 -185
c68 -32 162 -74 210 -94 49 -20 93 -41 99 -47 6 -7 28 -55 49 -107 20 -52 47
-111 58 -130 l21 -34 -26 19 c-14 11 -24 22 -22 24 2 3 -2 14 -10 26 -7 11
-15 29 -17 39 -3 13 -51 36 -179 86 -96 37 -204 81 -239 99 -34 18 -65 30 -68
28 -7 -8 66 -176 101 -231 43 -68 93 -124 131 -149 l30 -19 -30 7 c-16 3 -68
25 -115 48 -106 52 -185 129 -235 227 -37 73 -97 267 -110 352 l-7 48 118 -67
c66 -36 174 -93 241 -125z m4209 170 c-1 -13 -10 -24 -19 -26 -23 -5 -30 16
-7 23 11 3 20 11 20 16 0 5 2 9 5 9 3 0 3 -10 1 -22z m-3931 2 c-3 -5 -2 -10
4 -10 5 0 13 5 16 10 11 18 23 11 18 -10 -3 -11 -9 -17 -14 -15 -4 3 -13 -3
-18 -14 -9 -15 -6 -22 14 -35 14 -9 25 -12 25 -6 0 5 -4 10 -10 10 -5 0 -10 7
-10 16 0 8 4 13 9 9 5 -3 12 -1 16 5 3 5 15 10 26 10 10 0 19 4 19 10 0 5 -7
7 -15 4 -8 -4 -15 -2 -15 3 0 5 11 9 24 9 15 0 22 -5 19 -12 -2 -7 5 -15 16
-19 12 -3 19 -10 16 -15 -3 -5 1 -10 7 -12 7 -3 0 -7 -15 -10 -15 -3 -25 -3
-22 0 2 3 -4 12 -16 20 -16 11 -23 12 -32 2 -9 -9 -8 -11 7 -8 12 2 20 -3 21
-14 2 -11 -3 -18 -12 -18 -13 0 -13 3 -3 15 11 13 10 14 -4 9 -16 -6 -23 -34
-8 -34 4 0 13 -10 21 -22 12 -20 9 -19 -35 7 -93 53 -144 87 -144 97 0 5 6 6
12 2 14 -9 51 -13 43 -6 -3 3 5 11 18 18 29 16 29 16 22 4z m192 -16 c2 -5
-12 -9 -31 -10 -30 0 -38 9 -27 33 3 5 55 -15 58 -23z m4311 12 c-20 -15 -14
-26 16 -26 16 -1 12 -6 -18 -25 -40 -24 -66 -24 -47 -1 6 7 8 15 5 18 -5 6 44
48 55 48 3 0 -2 -7 -11 -14z m-518 -13 c0 -9 -124 -72 -132 -67 -6 4 -8 3 -5
-3 4 -6 -4 -15 -17 -21 -18 -8 -23 -7 -23 4 0 7 4 11 8 8 14 -8 22 18 8 28
-11 7 -9 8 5 4 11 -4 22 -2 25 3 4 5 20 12 36 15 16 3 35 12 43 20 12 12 52
19 52 9z m-110 -9 c0 -8 -19 -13 -24 -6 -3 5 1 9 9 9 8 0 15 -2 15 -3z m-3685
-24 c3 -5 -1 -10 -9 -10 -9 0 -16 5 -16 10 0 6 4 10 9 10 6 0 13 -4 16 -10z
m4250 0 c-3 -5 -12 -10 -18 -10 -7 0 -6 4 3 10 19 12 23 12 15 0z m-3859 -40
c4 0 4 6 1 14 -6 15 17 16 30 1 4 -4 2 -5 -4 -1 -8 4 -13 1 -13 -9 0 -12 6
-15 20 -10 14 5 20 2 20 -10 0 -10 5 -13 12 -9 7 4 8 3 4 -4 -5 -8 -27 -1 -71
20 -40 20 -60 35 -53 40 7 4 20 -1 31 -13 10 -10 20 -19 23 -19z m3224 26 c0
-3 -4 -8 -10 -11 -5 -3 -10 -1 -10 4 0 6 5 11 10 11 6 0 10 -2 10 -4z m256
-53 c-3 -10 -27 -39 -53 -63 l-47 -45 35 45 c20 25 41 56 48 68 14 27 26 23
17 -5z m-3776 -6 c0 -7 -10 -13 -21 -14 -21 -2 -21 -1 -3 12 24 18 24 18 24 2z
m140 -32 c0 -16 19 -38 65 -76 42 -34 62 -56 56 -62 -7 -7 -16 -5 -28 4 -16
13 -17 12 -5 -2 10 -13 10 -19 -2 -28 -10 -9 -27 -6 -75 15 -55 24 -78 44 -51
44 6 0 10 7 10 16 0 8 -4 13 -8 10 -5 -3 -9 1 -9 9 0 10 4 12 12 5 7 -5 14 -7
18 -4 3 3 3 -4 0 -16 -4 -17 -2 -21 8 -18 17 6 19 53 2 53 -6 0 -15 4 -20 9
-5 5 -2 6 6 1 11 -6 13 1 9 33 -2 22 0 38 4 36 5 -3 8 -16 8 -29z m-37 -8 c3
-7 -3 -13 -14 -14 -15 -1 -16 1 -6 12 15 18 14 18 20 2z m3148 -36 c7 11 9 10
9 -4 0 -12 4 -16 13 -11 6 4 8 3 4 -1 -10 -12 -37 -15 -37 -5 0 5 -13 3 -29
-3 -17 -6 -27 -15 -25 -19 3 -5 2 -8 -3 -7 -4 1 -15 1 -23 0 -13 -1 -13 -2 0
-11 8 -5 10 -10 4 -10 -5 0 -18 6 -29 13 -17 13 -16 15 16 27 19 7 40 12 47
11 6 -1 12 3 12 9 0 6 5 8 10 5 6 -3 10 0 11 7 0 10 2 10 6 -1 5 -11 7 -11 14
0z m-3234 -33 c-3 -8 -6 -5 -6 6 -1 11 2 17 5 13 3 -3 4 -12 1 -19z m613 7
c-5 -7 -7 -15 -3 -18 9 -10 34 14 26 26 -3 6 -1 7 6 3 6 -4 8 -13 4 -19 -11
-18 -12 -37 -2 -38 37 -5 71 0 64 10 -8 14 36 4 49 -10 8 -8 5 -8 -11 0 -13 6
-23 9 -23 6 0 -12 5 -20 13 -17 4 1 7 -3 7 -9 0 -6 -7 -9 -15 -6 -8 4 -17 2
-20 -3 -4 -6 -1 -10 6 -10 7 0 10 -2 7 -5 -7 -8 -98 37 -98 48 0 4 -4 6 -8 3
-4 -2 -14 -1 -22 5 -10 5 -10 9 -3 9 6 0 10 8 8 18 -2 11 3 19 11 19 9 0 11
-4 4 -12z m2687 2 c-2 -6 -41 -30 -86 -55 -79 -43 -83 -44 -66 -19 9 15 21 27
26 27 5 0 9 8 10 18 0 10 3 12 6 5 2 -7 9 -13 15 -13 6 0 8 6 5 13 -3 8 3 13
17 14 46 1 57 3 52 11 -3 5 2 9 10 9 8 0 13 -5 11 -10z m-2636 -30 c-10 -9
-11 -8 -5 6 3 10 9 15 12 12 3 -3 0 -11 -7 -18z m-616 3 c3 -5 1 -10 -4 -10
-6 0 -11 5 -11 10 0 6 2 10 4 10 3 0 8 -4 11 -10z m3795 0 c-8 -5 -19 -10 -25
-10 -5 0 -3 5 5 10 8 5 20 10 25 10 6 0 3 -5 -5 -10z m-70 -30 c-42 -23 -57
-25 -40 -6 10 13 32 21 65 24 6 1 -6 -7 -25 -18z m785 -10 c4 -6 3 -10 -2 -9
-25 4 -34 -3 -29 -23 3 -13 3 -18 0 -11 -7 15 -34 5 -34 -13 0 -8 -5 -14 -10
-14 -7 0 -7 6 0 20 6 11 16 20 22 20 6 0 8 3 4 7 -3 4 4 13 16 20 28 15 26 15
33 3z m-5171 -45 c3 -8 0 -14 -6 -12 -6 1 -15 -9 -19 -23 -4 -16 -7 -19 -8 -7
-1 14 18 57 25 57 1 0 4 -7 8 -15z m25 -26 c-11 -7 -11 -9 2 -9 9 0 20 -8 23
-17 6 -14 9 -15 15 -4 5 7 11 9 14 4 3 -5 2 -15 -3 -23 -8 -13 -12 -11 -25 8
-19 27 -32 28 -58 5 -16 -15 -15 -11 4 18 13 20 28 34 33 32 4 -3 2 -9 -5 -14z
m4641 16 c0 -17 -63 -140 -78 -152 -49 -39 -75 -56 -69 -46 4 7 3 14 -3 18 -5
3 -10 12 -10 18 0 8 3 8 9 -1 6 -10 10 -10 21 3 7 8 19 15 27 15 13 0 13 3 2
18 -12 15 -12 16 1 5 20 -15 45 -1 37 21 -4 9 -1 15 5 13 7 -1 14 6 16 16 3
13 -13 7 -61 -26 -87 -60 -263 -125 -407 -150 -21 -4 -20 -4 7 -6 32 -1 51
-15 34 -25 -5 -3 -7 -15 -4 -25 4 -16 13 -19 44 -17 45 4 45 -1 1 -13 -27 -8
-34 -5 -63 25 -18 19 -50 46 -71 61 -21 14 -35 29 -31 33 4 4 60 22 123 39
116 32 321 110 408 156 48 24 62 29 62 20z m378 -1 c-6 -5 -29 -11 -51 -13 -5
-1 -6 -5 -3 -9 3 -5 -2 -9 -11 -9 -12 0 -11 5 7 19 19 16 73 27 58 12z m93 -8
c14 8 11 -22 -4 -34 -9 -8 -13 -3 -13 21 -1 18 1 26 3 19 3 -6 9 -10 14 -6z
m-4401 -117 c47 -17 134 -44 194 -59 59 -16 111 -31 113 -34 3 -2 -8 -11 -24
-19 -15 -9 -48 -36 -72 -60 -38 -40 -46 -44 -71 -37 -16 5 -37 13 -47 19 -15
9 -13 10 11 5 21 -5 27 -4 22 5 -4 6 -1 11 8 11 10 0 13 -6 9 -16 -4 -12 -2
-15 8 -12 8 3 13 11 11 17 -1 6 2 11 8 11 5 0 10 4 10 9 0 4 -11 7 -25 6 -14
-2 -28 2 -32 7 -3 7 -1 8 5 4 7 -4 12 -1 12 6 0 9 3 9 10 -2 7 -11 10 -11 10
-2 0 7 4 11 8 8 4 -2 14 -1 21 3 8 5 -2 11 -29 15 -104 16 -325 102 -373 144
-27 24 -33 5 -9 -28 25 -33 27 -40 11 -40 -5 0 -7 5 -4 10 3 6 2 10 -3 10 -4
0 -16 16 -25 35 -19 39 -22 59 -7 35 5 -8 10 -10 10 -5 0 6 -12 21 -25 34 -14
13 -25 27 -25 31 0 5 46 -11 103 -36 56 -25 140 -59 187 -75z m-631 102 c8 -5
9 -11 3 -15 -5 -3 -15 1 -22 9 -14 16 -3 20 19 6z m4961 -1 c0 -5 -2 -10 -4
-10 -3 0 -8 5 -11 10 -3 6 -1 10 4 10 6 0 11 -4 11 -10z m-1025 -30 c-27 -12
-43 -12 -25 0 8 5 22 9 30 9 10 0 8 -3 -5 -9z m-456 -47 c-12 -15 -12 -16 6
-9 16 6 17 5 8 -5 -9 -9 -16 -9 -26 -1 -8 7 -18 8 -22 4 -5 -4 -5 -1 -1 6 4 7
11 10 16 7 5 -3 11 -1 15 5 3 5 9 10 12 10 3 0 -1 -8 -8 -17z m-3552 -18 c0
-8 -4 -12 -9 -9 -5 3 -6 10 -3 15 9 13 12 11 12 -6z m3620 -9 c-4 -9 -14 -12
-26 -9 -12 3 -18 9 -15 15 3 5 12 4 20 -3 11 -9 14 -8 14 6 0 10 3 16 6 12 4
-3 4 -13 1 -21z m1360 -95 c-1 -18 -35 -37 -46 -26 -2 3 1 5 8 5 7 0 9 5 6 10
-3 6 1 10 9 10 9 0 16 5 16 10 0 6 2 10 4 10 3 0 4 -9 3 -19z m-4526 -38 c13
-16 12 -17 -3 -4 -10 7 -18 15 -18 17 0 8 8 3 21 -13z m2474 -13 c28 -23 57
-91 81 -190 26 -104 29 -134 14 -125 -5 3 -10 26 -10 51 0 28 -4 43 -10 39 -5
-3 -10 -15 -10 -25 0 -10 -5 -22 -10 -25 -7 -4 -9 10 -6 40 4 34 0 58 -16 90
-26 54 -53 65 -155 65 -73 0 -75 -1 -108 -37 -19 -21 -35 -33 -35 -27 0 25 32
99 55 130 l25 33 84 -2 c54 -2 90 -8 101 -17z m1880 0 c3 -5 1 -10 -4 -10 -6
0 -11 5 -11 10 0 6 2 10 4 10 3 0 8 -4 11 -10z m-608 -32 c-3 -8 -6 -5 -6 6
-1 11 2 17 5 13 3 -3 4 -12 1 -19z m-3867 2 c20 -6 21 -8 5 -8 -11 0 -33 4
-50 8 -27 7 -27 8 -5 8 14 0 36 -4 50 -8z m4383 3 c-7 -2 -19 -2 -25 0 -7 3
-2 5 12 5 14 0 19 -2 13 -5z m-56 -9 c-3 -3 -12 -4 -19 -1 -8 3 -5 6 6 6 11 1
17 -2 13 -5z m-4250 -10 c-3 -3 -12 -4 -19 -1 -8 3 -5 6 6 6 11 1 17 -2 13 -5z
m2122 -29 c45 -39 73 -89 69 -127 l-3 -33 -20 35 c-10 19 -18 40 -17 47 3 15
-15 26 -23 13 -3 -5 -36 -10 -73 -10 -87 0 -128 -13 -168 -51 l-33 -32 10 39
c13 47 45 110 59 119 9 6 49 12 157 24 6 0 25 -10 42 -24z m350 -65 c19 -5 44
-19 57 -31 20 -18 22 -29 19 -95 -2 -43 0 -72 6 -68 13 8 10 -204 -5 -251 -19
-63 -62 -86 -155 -83 -66 3 -76 6 -92 28 -30 40 -49 136 -55 270 -6 151 0 179
47 202 78 37 122 44 178 28z m2271 -9 c0 -19 -90 -129 -154 -189 -86 -80 -174
-124 -296 -147 l-35 -7 49 33 c70 47 167 139 159 152 -3 5 -2 7 4 4 10 -6 41
22 59 53 6 12 2 11 -19 -2 -29 -20 -74 -26 -47 -7 12 8 11 9 -5 5 -11 -3 -67
-10 -125 -16 -130 -14 -152 -18 -145 -30 3 -5 15 -7 26 -5 15 3 19 0 17 -13
-3 -9 -9 -16 -14 -15 -5 1 -9 -10 -8 -25 3 -45 4 -48 15 -29 5 9 8 21 5 26 -3
4 4 17 17 27 12 11 17 12 11 4 -6 -8 -14 -28 -18 -44 -7 -27 -5 -28 19 -24 14
3 27 2 30 -2 8 -12 -79 -7 -92 5 -7 7 -10 15 -7 18 3 3 -5 4 -18 1 -12 -2 -17
-1 -10 2 10 5 10 9 1 20 -17 21 -31 17 -24 -6 5 -14 2 -20 -9 -20 -9 0 -16 -7
-16 -15 0 -16 -16 -20 -24 -6 -3 5 -15 7 -26 4 -11 -3 -46 -2 -77 2 -49 6 -54
9 -35 16 13 5 29 6 35 2 19 -12 37 -12 37 -2 0 6 5 7 12 3 6 -4 8 -3 5 4 -4 5
-17 8 -30 5 -12 -3 1 10 29 28 29 19 74 59 100 91 l49 56 121 7 c67 4 186 15
265 25 79 9 150 18 157 19 6 0 12 -3 12 -8z m-5112 -21 c35 -5 143 -14 240
-20 l177 -12 45 -51 c25 -28 65 -63 89 -79 25 -15 40 -28 34 -28 -5 0 -28 13
-49 28 -36 26 -51 29 -186 41 -81 7 -174 18 -207 25 -54 11 -59 11 -51 -3 19
-35 159 -162 214 -195 66 -40 61 -43 -32 -21 -131 31 -239 108 -353 251 -27
34 -49 65 -49 68 0 9 55 7 128 -4z m1337 0 c-3 -5 -14 -10 -23 -9 -14 0 -13 2
3 9 27 11 27 11 20 0z m-42 -16 c6 -7 -37 -41 -110 -87 -40 -25 -40 -25 -39
-4 1 18 -4 22 -28 20 -40 -3 -33 1 69 41 99 39 99 39 108 30z m2407 -5 c0 -5
4 -8 9 -5 5 3 44 -6 86 -21 42 -15 72 -29 66 -31 -6 -2 -9 -8 -5 -13 3 -5 2
-9 -3 -8 -4 1 -14 1 -22 0 -11 -1 -11 -4 0 -18 8 -9 -21 7 -64 36 -79 55 -97
71 -78 71 6 0 11 -5 11 -11z m-3105 -9 c129 -15 145 -19 145 -40 0 -26 -25
-32 -100 -25 -60 6 -128 37 -146 67 -6 10 -8 10 101 -2z m3857 -23 c-17 -18
-40 -33 -49 -34 -10 -1 -45 -8 -78 -17 -92 -24 -97 -22 -93 22 l3 37 75 11
c41 6 97 12 124 13 l50 1 -32 -33z m-1965 8 c38 -27 60 -77 67 -152 6 -62 5
-73 -8 -73 -9 0 -16 6 -16 12 0 7 -7 3 -15 -9 -25 -35 -94 -56 -175 -51 l-71
4 7 -31 c6 -27 28 -54 47 -55 4 0 7 -5 7 -11 0 -5 -4 -8 -8 -5 -9 5 -13 -11
-13 -56 0 -34 35 -104 56 -112 9 -3 38 -6 65 -6 37 0 55 6 79 26 37 31 46 73
34 158 -7 49 -6 68 4 82 11 15 13 0 13 -100 0 -110 -1 -118 -24 -141 -42 -42
-130 -56 -190 -31 -28 12 -38 26 -64 87 -45 109 -51 142 -54 274 -3 128 4 155
45 177 56 30 179 37 214 13z m-345 -22 c23 -22 28 -35 28 -72 l-1 -46 -24 41
-25 41 -78 -17 c-88 -19 -117 -32 -133 -61 -20 -39 -20 -12 1 44 24 65 26 66
95 83 80 19 106 17 137 -13z m1793 -62 c3 -5 2 -12 -3 -15 -5 -3 -9 1 -9 9 0
17 3 19 12 6z m-64 -18 c13 -16 12 -17 -3 -4 -10 7 -18 15 -18 17 0 8 8 3 21
-13z m-691 -23 c45 -12 86 -42 93 -70 4 -17 2 -18 -14 -10 -10 6 -23 19 -29
30 -12 22 -106 53 -147 48 -16 -2 -28 2 -31 11 -4 11 5 13 43 8 26 -4 65 -12
85 -17z m-2140 -14 l34 -23 23 -154 23 -154 -27 -22 c-15 -12 -30 -19 -34 -15
-3 4 -11 39 -18 77 -6 39 -20 120 -31 180 -28 154 -29 150 30 111z m1096 -17
c18 -19 22 -28 11 -24 -21 9 -21 2 -3 -33 7 -15 16 -45 20 -67 3 -22 16 -89
27 -150 17 -87 19 -116 10 -138 -14 -35 -64 -57 -127 -57 -42 0 -51 4 -83 38
-20 21 -51 69 -70 106 -28 55 -35 82 -39 144 -6 114 9 150 77 185 77 39 137
37 177 -4z m1844 10 c0 -19 -42 -283 -56 -351 l-6 -28 -33 25 -33 26 13 67 c7
37 18 106 25 154 11 81 14 89 43 107 40 26 47 26 47 0z m667 -6 c0 -9 -4 -10
-14 -2 -7 6 -13 12 -13 14 0 1 6 2 13 2 8 0 14 -6 14 -14z m91 -22 c-8 -14
-23 -21 -43 -21 -27 1 -28 2 -13 14 10 7 16 16 13 20 -3 3 0 2 6 -3 8 -6 17
-5 27 5 20 20 26 11 10 -15z m-2952 -21 c39 -25 45 -41 36 -94 l-7 -39 -20 36
c-22 42 -36 45 -112 22 -34 -10 -61 -26 -79 -47 l-27 -33 8 35 c17 81 28 95
96 118 35 12 66 21 68 22 2 0 19 -9 37 -20z m2770 7 c4 -4 -2 -7 -14 -7 -12 0
-22 4 -22 9 0 10 26 9 36 -2z m-4029 -13 c-3 -3 -12 -4 -19 -1 -8 3 -5 6 6 6
11 1 17 -2 13 -5z m2626 -9 c187 -49 282 -175 251 -334 -5 -22 -12 -31 -26
-31 -13 0 -18 5 -15 14 17 43 18 85 3 114 -19 37 -44 52 -85 52 -29 0 -31 3
-31 36 0 50 -45 94 -95 94 -66 0 -115 -73 -86 -128 8 -15 3 -17 -37 -16 -42 1
-47 4 -50 25 -2 19 -1 21 7 9 10 -13 11 -13 12 0 0 8 3 29 5 45 3 22 2 26 -5
15 -8 -12 -9 56 -1 118 1 8 105 0 153 -13z m-2716 -1 c-3 -3 -12 -4 -19 -1 -8
3 -5 6 6 6 11 1 17 -2 13 -5z m2097 -49 c3 -8 1 -15 -4 -15 -6 0 -10 7 -10 15
0 8 2 15 4 15 2 0 6 -7 10 -15z m652 -43 c23 -15 34 -50 25 -75 -17 -43 -60
-49 -96 -12 -30 29 -31 35 -4 69 20 25 53 33 75 18z m-1400 -36 c22 -22 34
-44 34 -61 0 -15 14 -58 30 -96 49 -110 42 -157 -27 -186 -81 -33 -132 -3
-188 110 -37 75 -63 173 -53 199 9 21 105 68 141 68 20 0 40 -11 63 -34z
m-1006 -29 c0 -43 0 -43 -51 -61 -38 -14 -56 -16 -73 -8 -17 7 -41 4 -101 -13
-87 -25 -87 -22 5 -66 l35 -17 -34 -1 c-31 -1 -155 51 -167 71 -6 9 -7 9 106
36 47 12 126 39 175 60 50 22 93 41 98 41 4 1 7 -18 7 -42z m3570 -17 c41 -15
112 -36 157 -46 45 -9 80 -21 77 -26 -15 -24 -204 -102 -204 -84 0 2 26 19 59
37 l59 32 -92 32 c-50 17 -100 35 -111 40 l-20 8 20 -16 c16 -13 17 -16 5 -17
-9 0 -21 5 -27 11 -8 8 -13 7 -18 -2 -5 -7 -4 -10 1 -6 5 3 18 -2 29 -10 20
-16 20 -16 0 -9 -11 4 -37 13 -57 19 -22 7 -38 18 -38 27 0 13 1 13 10 0 8
-12 10 -12 16 3 3 9 11 14 18 10 16 -11 37 -13 31 -3 -2 4 -18 13 -35 20 -16
7 -30 19 -30 26 0 12 7 11 38 -2 20 -9 71 -29 112 -44z m-1830 -38 c0 -49 -12
-77 -36 -86 -12 -5 -15 -2 -10 10 4 11 2 15 -8 11 -9 -4 -13 0 -11 11 1 9 -2
24 -8 32 -6 8 -7 12 -3 8 5 -4 16 -2 25 5 14 11 14 10 2 -5 -7 -10 -9 -18 -3
-18 12 0 23 26 14 34 -3 4 -6 14 -7 24 -1 13 6 18 22 18 21 0 23 -5 23 -44z
m-199 15 c-10 -9 -11 -8 -5 6 3 10 9 15 12 12 3 -3 0 -11 -7 -18z m997 -39
c20 -20 14 -25 -25 -22 -21 2 -42 3 -47 3 -5 1 -3 8 4 16 15 18 51 20 68 3z
m-242 -23 c8 -13 10 -25 4 -35 -7 -11 -11 -9 -19 13 -6 15 -14 27 -18 27 -13
-1 -39 -24 -46 -40 -3 -8 -6 -1 -6 17 -1 17 5 34 12 37 24 10 60 1 73 -19z
m-666 -20 c0 -2 -6 -8 -13 -14 -10 -8 -14 -7 -14 2 0 8 6 14 14 14 7 0 13 -1
13 -2z m-840 -83 c0 -12 -7 -39 -15 -59 -18 -43 -19 -51 -3 -35 16 16 28 15
28 0 0 -7 16 -39 36 -72 19 -32 38 -73 41 -90 4 -17 13 -47 22 -66 8 -19 20
-63 26 -97 l11 -63 -34 -32 c-43 -42 -128 -155 -176 -236 -22 -37 -42 -59 -48
-55 -7 4 -9 1 -6 -8 3 -9 -2 -26 -11 -38 -13 -17 -18 -19 -18 -7 0 9 4 16 9
16 5 0 7 4 4 9 -3 4 6 23 19 41 19 25 22 37 14 52 -12 22 -4 38 19 38 16 -1
16 -1 0 -11 -9 -5 -15 -16 -12 -24 4 -8 10 -12 15 -9 5 3 7 10 4 15 -4 5 -2 9
3 9 5 0 14 12 20 26 10 20 10 24 0 18 -7 -4 -10 -4 -6 0 3 4 9 6 11 4 3 -1 16
10 28 26 16 20 19 31 11 34 -7 2 -10 8 -7 12 3 5 1 11 -4 14 -5 4 -12 -3 -16
-14 -4 -13 -15 -20 -32 -20 -18 0 -24 4 -19 15 3 8 1 15 -3 15 -21 0 -18 -28
4 -38 17 -8 28 -7 43 4 11 8 23 11 26 6 7 -11 -25 -30 -46 -26 -10 1 -18 -2
-18 -7 0 -5 4 -9 8 -9 4 0 8 -8 9 -19 1 -14 -3 -17 -18 -14 -10 3 -16 10 -12
16 4 6 1 7 -7 2 -10 -6 -12 -3 -7 14 5 19 3 20 -11 9 -9 -7 -13 -8 -10 -3 4 6
3 17 -3 25 -7 12 -9 9 -9 -10 0 -20 -2 -22 -11 -10 -8 12 -10 11 -7 -5 2 -11
10 -21 18 -21 8 -1 19 -2 25 -3 5 0 4 -6 -3 -13 -8 -8 -8 -17 -1 -30 6 -11 8
-24 5 -31 -2 -7 -5 -5 -5 5 -1 14 -6 15 -31 8 -19 -5 -28 -5 -25 1 4 5 14 9
23 9 11 0 18 8 18 20 0 22 -12 27 -19 8 -2 -7 -3 -5 -2 5 2 9 -1 17 -6 17 -5
0 -9 -7 -9 -16 0 -8 -4 -13 -9 -9 -6 3 -9 -3 -9 -12 0 -10 0 -22 -2 -28 -1 -5
-2 -29 -1 -52 1 -31 5 -43 16 -43 8 0 15 -4 15 -10 0 -19 -22 -10 -55 23 l-33
33 5 -35 c12 -88 40 -143 82 -166 23 -12 24 -14 8 -21 -27 -10 -83 49 -104
110 -28 81 -23 260 11 411 44 188 137 444 199 544 l21 35 13 -30 c6 -16 12
-39 13 -52z m-411 46 c-45 -85 -132 -188 -225 -269 -57 -48 -115 -96 -129
-105 -14 -9 -24 -23 -21 -30 3 -8 1 -14 -3 -14 -5 0 -11 5 -13 11 -4 11 -36
-23 -111 -114 -20 -25 -86 -79 -145 -119 -58 -40 -140 -101 -181 -136 -40 -34
-76 -60 -80 -56 -11 11 152 158 244 220 90 60 101 72 183 206 24 38 69 83 155
153 66 55 169 139 227 188 58 48 106 87 108 87 1 0 -3 -10 -9 -22z m2309 -23
c22 -46 20 -51 -23 -39 -17 4 -20 12 -17 45 2 21 7 39 11 39 4 0 17 -20 29
-45z m522 -105 c181 -141 263 -218 312 -293 72 -111 83 -122 181 -189 104 -71
252 -207 239 -220 -4 -4 -35 18 -67 50 -33 31 -96 81 -140 109 -128 83 -153
103 -235 195 -48 53 -78 80 -77 68 1 -10 5 -16 11 -13 5 3 6 1 2 -5 -6 -11
-24 -10 -61 4 -16 6 -18 5 -7 -7 6 -7 12 -17 12 -22 0 -5 -10 3 -22 19 -13 16
-22 33 -20 38 2 5 -4 4 -12 -4 -15 -11 -14 -14 1 -29 10 -9 20 -27 21 -41 4
-29 -1 -25 -50 45 -38 54 -59 92 -35 63 8 -11 17 -14 23 -8 6 6 15 5 24 -1 13
-9 12 -10 -2 -5 -20 6 -25 -9 -7 -20 17 -10 28 16 19 47 -8 27 -7 28 13 18 12
-7 20 -9 17 -7 -15 16 -161 128 -166 128 -3 0 -4 -8 0 -17 4 -15 3 -15 -7 1
-22 35 -93 141 -120 180 -39 56 -33 64 16 24 23 -19 85 -68 137 -108z m-3759
113 c11 -15 11 -16 -1 -5 -24 21 -29 13 -25 -45 l4 -58 -9 55 c-4 30 -6 58 -4
62 8 13 21 9 35 -9z m2639 -42 c0 -4 -10 -21 -22 -37 -13 -15 -17 -25 -10 -20
8 4 12 1 12 -9 0 -10 -5 -13 -12 -9 -8 5 -9 2 -5 -9 5 -12 1 -17 -14 -17 -25
0 -87 -32 -116 -59 -56 -53 -73 -144 -40 -210 9 -18 14 -38 10 -44 -3 -5 -2
-7 4 -4 5 4 23 -8 39 -26 16 -17 25 -29 20 -25 -5 5 -15 3 -21 -2 -9 -8 -22
-3 -45 16 -25 21 -31 33 -28 55 3 15 1 26 -4 23 -4 -3 -8 4 -8 15 0 39 -19 31
-22 -10 l-3 -42 -142 -1 -143 -2 0 48 c0 26 -4 48 -10 48 -5 0 -10 -7 -10 -15
0 -25 -20 -110 -30 -125 -17 -26 -29 7 -18 49 19 68 -16 204 -63 247 -22 20
-24 30 -6 37 6 3 29 13 51 22 35 15 38 15 33 0 -4 -9 1 -23 12 -34 16 -16 32
-18 172 -13 85 2 160 9 167 15 7 6 11 24 9 41 -3 28 -6 31 -35 28 -44 -5 -40
11 11 41 38 23 55 26 142 26 54 0 100 3 103 6 8 8 22 6 22 -4z m210 -15 c91
-18 110 -36 110 -108 0 -90 -24 -104 -127 -73 -42 13 -53 21 -62 47 -12 35
-15 148 -3 148 4 0 41 -6 82 -14z m-120 -53 c0 -32 5 -75 11 -96 12 -46 47
-64 139 -74 75 -7 94 7 111 84 10 42 10 62 1 86 -6 17 -10 32 -8 35 7 6 200
-18 209 -27 5 -5 2 -19 -6 -32 -9 -13 -23 -62 -32 -109 -15 -73 -22 -89 -51
-117 -19 -18 -34 -37 -34 -42 0 -7 -29 -11 -75 -11 -121 0 -231 49 -291 131
-27 37 -32 72 -9 63 8 -4 15 -10 15 -16 0 -5 -5 -6 -11 -2 -19 12 19 -50 48
-78 61 -57 273 -109 302 -74 9 11 1 14 -44 20 -110 13 -297 89 -281 114 5 9
-20 58 -28 55 -23 -10 -28 0 -21 44 8 52 30 103 45 103 6 0 10 -26 10 -57z
m1333 -12 c69 -51 187 -216 187 -260 0 -26 -49 15 -85 72 -22 34 -62 85 -90
112 l-50 50 -9 -45 c-5 -25 -10 -47 -12 -49 -2 -2 -16 6 -33 18 l-29 21 25 65
c16 39 30 62 37 58 6 -3 33 -22 59 -42z m-3521 -19 l28 -57 -27 -22 c-32 -26
-43 -22 -43 15 0 55 -14 55 -66 0 -28 -29 -69 -81 -92 -114 -39 -58 -67 -82
-81 -69 -9 9 44 104 94 167 41 52 137 139 153 137 4 0 19 -26 34 -57z m3792
30 c2 -4 -4 -8 -14 -8 -10 0 -16 4 -14 8 3 4 9 8 14 8 5 0 11 -4 14 -8z m-4
-82 l-5 -55 -3 48 c-2 26 -7 47 -13 47 -5 0 -9 4 -9 8 0 4 8 8 18 8 15 0 16
-8 12 -56z m-1055 -70 c26 -106 43 -286 32 -332 -4 -15 -31 -44 -64 -69 -32
-24 -86 -67 -121 -97 -35 -30 -66 -52 -68 -49 -5 4 68 69 156 140 l35 27 -30
-6 c-52 -11 -115 -42 -158 -79 l-42 -36 -29 32 -29 33 43 38 c23 21 60 43 81
50 38 11 39 12 39 58 0 58 21 119 55 164 14 19 28 43 30 54 2 12 8 30 14 41 6
11 11 27 11 37 0 12 -6 9 -22 -12 -46 -59 -56 -55 -27 12 11 27 27 64 35 83 9
21 18 31 24 25 5 -5 21 -56 35 -114z m-2485 50 c-22 -44 -35 -53 -24 -17 6 20
32 57 41 57 2 0 -6 -18 -17 -40z m1796 4 c-108 -39 -136 -144 -59 -220 28 -29
41 -34 79 -34 50 0 88 20 109 59 13 24 14 25 15 4 0 -28 -51 -70 -97 -79 -50
-9 -121 21 -150 65 -60 90 7 223 112 220 29 0 29 -1 -9 -15z m-1670 -69 c8
-31 14 -58 12 -60 -2 -1 -26 -9 -54 -17 l-51 -15 36 78 c20 42 37 76 39 74 2
-2 10 -29 18 -60z m2769 -93 c-2 -2 -26 7 -55 19 -32 14 -49 27 -46 35 3 7 8
30 12 51 4 21 9 42 12 48 3 5 22 -27 43 -70 20 -44 35 -81 34 -83z m-1862 100
c-1 -24 -7 -50 -14 -58 -29 -36 -79 3 -79 62 0 40 7 46 55 42 l40 -3 -2 -43z
m829 -25 c20 -47 20 -48 2 -62 -24 -18 -66 -19 -83 -2 -11 10 -13 8 -8 -10 7
-30 -17 -20 -32 14 -9 19 -9 34 -1 59 14 40 35 55 73 51 24 -2 32 -10 49 -50z
m-2671 8 c6 4 8 14 4 24 -5 12 -4 13 6 4 10 -10 10 -15 0 -27 -17 -20 -41 -9
-40 18 0 20 1 20 10 -2 5 -13 14 -20 20 -17z m4579 11 c0 -2 -6 -9 -14 -15
-11 -9 -16 -9 -22 0 -4 7 -3 9 4 5 6 -3 13 -2 17 4 6 10 15 14 15 6z m-3837
-40 c-27 -44 -93 -127 -93 -117 0 18 39 81 50 81 4 0 10 11 14 23 3 13 12 24
20 24 8 0 12 -5 9 -11z m3817 -16 c0 -12 -11 -32 -25 -45 -21 -22 -25 -36 -28
-103 l-3 -77 -2 80 c-2 73 0 82 23 104 14 13 25 32 25 42 0 10 2 19 5 19 3 0
5 -9 5 -20z m-3876 -5 c-4 -8 -13 -15 -20 -15 -12 0 -12 3 -2 15 17 19 29 19
22 0z m1078 -2 c39 -35 4 -76 -63 -71 -40 3 -44 6 -47 31 -2 16 -1 35 2 43 8
20 85 18 108 -3z m188 -22 c0 -42 -11 -51 -58 -51 -29 0 -40 6 -61 33 -12 15
-11 20 4 37 13 15 31 20 67 20 l48 0 0 -39z m1606 -15 c211 -72 224 -80 277
-172 8 -14 -52 -9 -67 6 -12 12 15 14 30 3 5 -5 -2 2 -16 14 -14 13 -37 27
-53 32 -25 9 -26 8 -17 -9 9 -17 8 -19 -12 -11 -13 5 -22 16 -22 24 1 12 -22
24 -80 42 -128 42 -134 45 -145 76 -5 16 -7 29 -2 29 4 0 52 -15 107 -34z
m-2456 15 c0 -12 -29 -81 -35 -81 -2 0 -2 7 1 15 8 20 6 19 -111 -20 l-100
-34 65 4 65 5 -95 -34 c-52 -19 -119 -44 -148 -56 l-54 -21 34 47 c61 85 69
90 214 138 146 47 164 51 164 37z m2040 -26 c0 -8 -7 -15 -15 -15 -8 0 -15 7
-15 15 0 8 7 15 15 15 8 0 15 -7 15 -15z m-1292 -84 c-3 -35 -4 -36 -43 -36
-39 0 -40 1 -43 39 -3 29 2 44 20 63 l23 24 23 -26 c17 -20 22 -37 20 -64z
m-1791 -88 c-2 -32 -3 -8 -3 52 0 61 1 87 3 58 2 -29 2 -78 0 -110z m3378 27
c36 -143 45 -314 20 -393 -21 -68 -73 -134 -98 -124 -20 8 -23 27 -4 27 36 0
86 104 87 177 0 20 -2 20 -29 -8 -31 -31 -57 -39 -47 -14 6 18 1 19 -24 5 -15
-8 -22 -4 -39 25 l-20 34 32 -6 c18 -3 37 -10 42 -16 7 -7 6 -8 -1 -4 -7 4
-14 1 -17 -6 -3 -8 3 -12 17 -12 31 2 46 13 46 36 0 11 -5 17 -10 14 -6 -4 -8
-11 -5 -16 4 -5 1 -9 -4 -9 -6 0 -11 5 -11 10 0 6 -7 10 -15 10 -8 0 -15 5
-15 11 0 5 4 8 8 5 4 -2 6 11 4 30 -4 35 -19 43 -40 22 -6 -6 -19 -13 -28 -14
-9 -1 12 26 45 61 l61 63 0 114 c0 68 4 107 9 98 5 -8 21 -62 36 -120z m-3298
48 c-2 -13 -4 -3 -4 22 0 25 2 35 4 23 2 -13 2 -33 0 -45z m500 37 c0 -8 -4
-12 -9 -9 -5 3 -6 10 -3 15 9 13 12 11 12 -6z m-87 -39 c0 -2 -8 -10 -17 -17
-16 -13 -17 -12 -4 4 13 16 21 21 21 13z m1655 -6 c7 -11 -39 -25 -55 -15 -5
3 -8 11 -5 16 8 12 52 12 60 -1z m145 0 c0 -5 -13 -10 -30 -10 -16 0 -30 5
-30 10 0 6 14 10 30 10 17 0 30 -4 30 -10z m-1783 -55 c0 -8 -4 -12 -9 -9 -5
3 -6 10 -3 15 9 13 12 11 12 -6z m2375 -173 c20 -32 20 -34 2 -24 -11 6 -28
19 -38 31 -10 11 -23 18 -27 15 -5 -3 -6 2 -3 10 3 9 2 16 -4 16 -16 0 -22 46
-10 80 l11 33 24 -63 c13 -35 33 -79 45 -98z m-1898 134 c-3 -8 -11 -50 -18
-93 l-12 -78 -44 4 c-25 2 -57 4 -72 4 -30 1 -29 4 19 63 18 23 33 45 33 49 0
4 -30 5 -67 1 -84 -7 -67 7 47 41 90 26 122 29 114 9z m2590 -17 c86 -29 143
-59 86 -46 -14 3 -49 9 -79 13 -50 6 -53 6 -43 -12 6 -10 24 -32 41 -48 17
-17 31 -33 31 -37 0 -3 -23 -7 -52 -8 -28 0 -59 -3 -68 -6 -14 -5 -19 6 -27
67 -6 40 -14 81 -18 91 -11 25 21 22 129 -14z m536 -10 c3 -4 23 -16 45 -27
22 -11 49 -28 60 -37 12 -10 6 -8 -16 4 -20 12 -60 32 -90 46 -35 16 -45 23
-29 22 14 -1 27 -5 30 -8z m-3640 -74 l0 -65 -50 -25 c-27 -14 -50 -29 -50
-35 0 -5 -8 -8 -17 -7 -17 1 -16 8 8 81 23 71 30 83 60 98 19 10 37 18 42 18
4 0 7 -29 7 -65z m3545 51 c30 -13 36 -22 57 -93 20 -63 22 -80 11 -86 -7 -4
-11 -18 -10 -30 2 -12 2 -16 0 -9 -5 14 -6 14 -27 6 -8 -3 -12 -12 -9 -20 3
-8 9 -12 13 -9 13 8 24 -15 12 -27 -7 -7 -16 -6 -29 1 -14 7 -23 7 -31 -1 -9
-9 -15 -9 -23 -1 -8 8 -7 13 2 18 8 5 10 4 5 -3 -10 -17 3 -15 20 2 21 21 17
28 -13 25 -52 -4 -183 32 -183 51 0 4 -26 25 -57 46 -55 37 -75 55 -69 61 8 8
191 -63 228 -88 35 -23 54 -29 101 -29 31 0 57 4 57 9 0 6 -24 22 -52 38 -49
26 -53 31 -54 66 -1 40 6 87 12 87 3 0 20 -6 39 -14z m-1262 -42 c-4 -12 -8
-13 -14 -3 -9 15 -2 32 11 24 5 -3 6 -13 3 -21z m-457 -57 c-17 -51 -23 -61
-34 -51 -10 11 -10 20 3 51 12 29 39 63 50 63 1 0 -8 -28 -19 -63z m417 44
c-4 -17 0 -18 29 -15 28 4 36 1 51 -25 9 -16 17 -34 17 -40 0 -22 -75 -93
-154 -145 -117 -78 -187 -95 -288 -70 -5 1 -11 2 -15 3 -5 1 -2 5 5 10 11 6 9
9 -6 13 -15 4 -18 1 -15 -12 3 -10 0 -21 -6 -24 -7 -5 -8 -1 -4 11 6 15 4 16
-8 6 -12 -10 -22 -8 -50 12 -20 13 -36 30 -36 39 0 8 3 13 7 11 3 -2 11 5 18
16 9 14 9 19 0 19 -6 0 -9 3 -5 6 3 3 11 3 17 -1 8 -5 7 -13 -4 -29 -9 -15
-11 -28 -5 -37 7 -11 9 -11 9 4 0 10 7 28 16 42 8 13 16 38 16 57 1 42 32 104
59 119 17 9 20 8 17 -2 -7 -20 94 -49 162 -48 30 1 47 3 38 6 -10 2 -18 9 -18
14 0 5 -3 8 -7 7 -5 0 -15 1 -23 5 -8 3 -22 7 -30 10 -8 2 13 4 47 4 54 1 100
15 170 52 0 1 -1 -8 -4 -18z m-296 -7 c-3 -3 -12 -4 -19 -1 -8 3 -5 6 6 6 11
1 17 -2 13 -5z m-2158 -26 c-49 -92 -95 -126 -158 -116 -24 3 -29 -1 131 116
17 12 33 22 35 22 2 0 -2 -10 -8 -22z m481 -3 c-7 -8 -18 -15 -25 -15 -6 0
-37 -22 -68 -49 -42 -37 -69 -52 -107 -60 -65 -14 -137 -14 -145 -1 -5 8 -11
8 -20 0 -10 -9 -13 -7 -11 7 2 15 12 18 52 18 39 0 61 7 102 34 47 30 222 95
231 85 2 -2 -2 -10 -9 -19z m3519 -34 c34 -25 73 -54 85 -64 21 -18 20 -18
-33 -13 -61 6 -74 15 -113 75 -48 76 -42 76 61 2z m-2102 -32 l3 -44 -25 47
c-14 26 -29 49 -35 53 -5 3 -10 11 -10 17 0 5 15 1 32 -9 28 -16 33 -25 35
-64z m-604 28 c-23 -24 -72 -86 -110 -138 -80 -106 -116 -143 -156 -158 -36
-14 -87 -14 -87 -1 0 6 14 10 31 10 67 0 111 42 323 306 11 13 24 24 29 24 5
0 -8 -20 -30 -43z m1717 -14 c-11 -17 -11 -17 -6 0 3 10 7 26 7 35 1 15 2 15
6 0 2 -10 -1 -25 -7 -35z m-1155 -60 c16 -21 37 -46 47 -56 24 -24 23 -49 -4
-75 -68 -63 -196 -81 -278 -39 -33 16 -52 35 -72 72 -39 71 -37 81 18 88 25 2
82 23 127 45 82 40 82 40 108 21 14 -10 39 -35 54 -56z m1536 60 c13 -16 12
-17 -3 -4 -10 7 -18 15 -18 17 0 8 8 3 21 -13z m-1923 -180 c34 -48 54 -60
147 -88 50 -15 99 -34 110 -42 18 -13 15 -14 -30 -7 -86 12 -198 43 -218 62
-23 20 -80 138 -96 200 -21 76 0 66 34 -17 18 -44 42 -93 53 -108z m1749 155
c-3 -7 -5 -2 -5 12 0 14 2 19 5 13 2 -7 2 -19 0 -25z m-2323 8 c-3 -9 -12 -12
-22 -9 -15 6 -9 11 25 22 1 1 0 -5 -3 -13z m2966 -47 c0 -6 -4 -7 -10 -4 -5 3
-10 11 -10 16 0 6 5 7 10 4 6 -3 10 -11 10 -16z m-3788 2 c-8 -4 -12 -12 -10
-16 5 -11 -15 -20 -127 -56 -55 -18 -94 -34 -87 -36 26 -9 10 -35 -34 -53 -51
-22 -82 -26 -46 -7 12 7 20 16 16 19 -3 4 2 4 13 2 10 -3 27 2 38 11 20 16 20
16 -2 6 -28 -14 -36 -14 -27 0 10 18 -74 -32 -94 -54 -16 -19 -16 -20 11 -15
16 3 25 3 20 -1 -4 -3 -20 -17 -34 -29 l-26 -23 5 27 c3 19 1 25 -7 20 -6 -4
-8 -12 -5 -18 4 -6 2 -8 -4 -4 -6 4 -25 -14 -43 -41 -60 -87 -61 -88 -147 -88
-102 1 -143 7 -149 23 -9 22 0 22 82 2 44 -11 86 -20 94 -20 26 0 99 87 107
125 3 20 4 38 1 42 -3 3 -26 -10 -52 -28 -31 -23 -41 -35 -33 -40 28 -17 -17
-37 -97 -44 l-80 -7 60 42 c33 24 112 78 176 120 113 76 116 78 141 62 24 -14
31 -14 104 10 44 14 106 32 139 39 33 6 67 18 75 26 8 7 19 13 25 13 5 0 4 -4
-3 -9z m2488 -6 c0 -1 -14 -14 -32 -31 -18 -16 -26 -21 -19 -11 7 9 10 17 6
17 -4 0 -2 6 4 13 8 11 41 20 41 12z m85 -86 c-76 -77 -163 -139 -195 -139 -8
0 12 18 45 39 33 22 94 71 135 110 41 38 79 70 85 71 5 0 -26 -36 -70 -81z
m1310 61 c28 -5 85 -20 129 -32 62 -17 82 -19 97 -10 16 10 35 1 127 -57 60
-38 140 -89 178 -115 l69 -46 -40 1 c-22 0 -60 4 -85 7 -38 6 -45 11 -45 29 0
15 -16 34 -44 55 l-44 32 6 -43 c6 -50 51 -111 91 -126 18 -6 41 -5 74 5 66
19 122 24 122 12 0 -23 -44 -32 -167 -35 l-63 -2 -65 65 c-35 35 -62 66 -59
69 3 3 14 -5 25 -18 10 -13 19 -19 19 -14 0 5 -11 20 -25 33 -14 13 -25 20
-25 15 0 -4 -9 4 -21 19 -11 14 -25 23 -30 20 -6 -3 -2 -12 8 -20 29 -22 -3
-16 -55 10 -26 13 -73 32 -104 41 -54 18 -69 35 -28 35 41 0 26 19 -33 40 -34
12 -71 29 -82 37 l-20 15 20 -6 c11 -3 43 -10 70 -16z m-3876 -42 c1 7 13 12
29 11 27 -1 27 -1 -7 -16 -25 -10 -40 -12 -55 -4 -18 8 -18 10 -3 10 9 1 17 7
18 14 0 6 4 3 9 -8 5 -11 9 -14 9 -7z m3143 -20 c-22 -11 -25 -35 -3 -30 25 5
9 -17 -19 -26 l-30 -11 15 36 c8 19 15 37 15 39 0 2 10 4 23 3 l22 0 -23 -11z
m173 -19 c9 -17 15 -33 13 -35 -3 -2 -12 12 -21 31 -21 43 -13 47 8 4z m-508
-83 c18 -9 46 -16 63 -16 16 0 30 -4 30 -10 0 -15 -46 -12 -88 5 -39 17 -106
76 -124 110 -6 11 12 -1 38 -26 27 -26 63 -54 81 -63z m959 -261 c54 -105 120
-202 164 -239 39 -32 80 -34 127 -5 l35 22 -20 -39 c-11 -22 -27 -48 -36 -59
-14 -19 -15 -18 -7 12 9 31 9 32 -15 22 -61 -23 -152 60 -259 236 -20 33 -36
51 -35 40 1 -11 2 -24 1 -29 0 -4 -30 19 -66 53 -36 33 -70 61 -76 61 -6 0 -7
5 -3 12 5 8 1 9 -12 4 -13 -5 -16 -4 -9 3 6 6 22 12 35 13 14 2 27 6 31 10 3
4 21 -23 40 -62 18 -38 37 -69 42 -69 13 -1 8 27 -8 43 -37 36 -45 111 -18
153 l17 26 13 -59 c8 -33 34 -99 59 -149z m-3688 173 c7 -7 12 -31 12 -55 0
-33 -3 -41 -15 -37 -9 4 -17 -1 -21 -12 -3 -11 -16 -43 -30 -72 -26 -57 -29
-66 -15 -58 20 13 -3 -34 -27 -56 -15 -12 -22 -16 -17 -8 14 23 -11 -7 -64
-74 -24 -30 -55 -63 -70 -73 -26 -17 -134 -36 -125 -21 3 4 1 8 -5 8 -6 0 -18
14 -27 31 l-16 32 35 -22 c73 -45 131 -20 212 93 54 75 121 215 138 286 12 53
16 57 35 38z m3955 -32 c15 -12 17 -18 7 -36 -14 -26 -23 -19 -45 33 -15 36
-15 38 2 28 10 -6 26 -17 36 -25z m-4296 -20 c-20 -42 -37 -51 -37 -21 0 11
47 65 57 65 1 0 -8 -20 -20 -44z m1801 9 c247 -65 614 -59 829 14 32 11 59 18
60 17 1 -1 -2 -31 -8 -67 -6 -35 -8 -98 -5 -141 4 -58 2 -77 -8 -81 -14 -6
-26 75 -26 177 0 45 -1 48 -22 42 -135 -38 -156 -41 -348 -40 -155 1 -217 5
-305 22 -100 19 -145 23 -97 8 14 -5 21 -19 26 -53 9 -66 8 -83 -6 -83 -30 1
-41 20 -47 81 l-6 64 -62 17 c-35 9 -63 13 -64 10 0 -4 0 -31 1 -59 2 -55 -5
-62 -41 -43 -15 8 -19 21 -19 58 0 73 9 95 34 87 11 -3 63 -17 114 -30z m1887
5 c-3 -5 -12 -10 -18 -10 -7 0 -6 4 3 10 19 12 23 12 15 0z m-3261 -14 c-5 15
-4 16 5 4 8 -12 5 -19 -12 -33 l-22 -19 30 7 c28 6 27 4 -15 -26 -25 -18 -59
-48 -77 -68 l-32 -36 4 30 c2 17 4 36 4 43 1 6 4 11 9 11 23 -4 33 6 53 51 22
48 23 49 41 33 18 -16 19 -16 12 3z m3936 -21 c7 -9 11 -17 9 -18 -21 -15 -59
-37 -59 -34 0 14 23 67 30 67 4 0 13 -7 20 -15z m-4810 -16 c0 -6 -4 -7 -10
-4 -5 3 -10 11 -10 16 0 6 5 7 10 4 6 -3 10 -11 10 -16z m402 -9 c20 -35 18
-36 -22 -12 -23 14 -27 21 -18 30 17 17 21 15 40 -18z m2090 -47 c96 -17 97
-18 91 -43 -3 -14 -9 -29 -14 -34 -4 -5 -5 -16 -2 -25 3 -12 1 -11 -11 3 -20
25 -20 33 2 39 9 3 5 4 -10 4 l-27 -1 24 -44 25 -44 -28 6 c-135 33 -183 49
-168 58 9 5 26 7 39 4 12 -3 16 -3 9 0 -10 5 -10 9 -1 20 9 11 9 14 0 14 -7 0
-11 8 -9 17 2 10 -7 22 -22 30 -34 17 -13 17 102 -4z m2388 -2 c0 -11 -4 -23
-10 -26 -6 -4 -10 5 -10 19 0 14 5 26 10 26 6 0 10 -9 10 -19z m-4570 -12 c0
-11 -4 -17 -10 -14 -5 3 -10 13 -10 21 0 8 5 14 10 14 6 0 10 -9 10 -21z
m4650 -30 c0 -11 -89 -54 -96 -46 -6 6 68 56 84 56 6 1 12 -4 12 -10z m-4676
-20 c14 -11 26 -25 26 -30 0 -12 -50 10 -75 33 -19 18 -19 18 1 18 12 0 33 -9
48 -21z m4750 -8 c15 -28 15 -28 -25 -46 -21 -10 -41 -16 -44 -14 -3 4 46 89
52 89 1 0 9 -13 17 -29z m-4842 -23 c15 -23 25 -44 24 -46 -4 -3 -86 28 -86
34 0 9 24 54 29 54 3 0 18 -19 33 -42z m1941 19 c17 -11 17 -19 3 -111 -8 -54
-17 -100 -19 -102 -10 -10 -57 20 -53 33 3 7 13 53 23 103 9 49 20 90 23 90 3
0 14 -6 23 -13z m484 -12 c0 -8 -4 -12 -9 -9 -4 3 -8 0 -8 -5 0 -6 -4 -11 -9
-11 -5 0 -7 9 -4 20 6 23 30 27 30 5z m-149 -95 c214 -56 430 -73 587 -45 43
8 82 12 85 9 6 -7 40 -257 35 -263 -2 -2 -10 -1 -18 2 -8 3 -17 41 -26 108
l-12 104 -162 0 c-89 0 -196 6 -237 14 -72 12 -314 71 -355 87 -14 5 -17 4
-10 -4 14 -15 105 -50 209 -81 80 -23 90 -29 97 -54 7 -25 -4 -143 -14 -154
-5 -4 -89 15 -204 49 -46 13 -70 25 -66 32 6 9 8 48 3 61 -5 14 -3 52 4 63 4
8 5 16 2 19 -3 4 -7 0 -7 -8 -1 -8 -5 2 -9 21 -5 25 -8 7 -9 -62 0 -54 -5 -98
-10 -98 -5 0 -22 5 -37 10 l-27 10 8 103 c4 56 9 106 12 110 3 5 15 6 27 3 11
-4 72 -20 134 -36z m139 34 c-3 -3 -12 -4 -19 -1 -8 3 -5 6 6 6 11 1 17 -2 13
-5z m43 -4 c0 -5 -5 -10 -11 -10 -5 0 -7 5 -4 10 3 6 8 10 11 10 2 0 4 -4 4
-10z m-2155 -77 l30 -11 -29 -7 c-23 -6 -32 -4 -43 10 -17 24 -17 41 0 28 6
-6 26 -15 42 -20z m614 13 c8 -10 9 -16 1 -21 -6 -4 -9 -1 -8 6 2 6 -3 14 -11
17 -10 3 -12 0 -7 -14 5 -15 4 -16 -5 -7 -11 11 -5 33 10 33 5 0 14 -6 20 -14z
m2977 -12 c9 3 12 1 9 -4 -12 -19 -35 -10 -34 13 1 18 2 18 6 4 3 -11 11 -16
19 -13z m631 -11 c-9 -9 -23 -13 -36 -8 -30 9 -26 19 12 30 36 11 47 1 24 -22z
m-3762 6 c-4 -5 -13 -9 -21 -9 -12 0 -12 2 -2 14 14 15 32 11 23 -5z m41 -41
l29 -33 -32 29 c-31 28 -38 36 -30 36 2 0 16 -15 33 -32z m194 -43 c35 -36 62
-65 59 -65 -2 0 -34 29 -69 65 -35 36 -62 65 -59 65 2 0 34 -29 69 -65z m73
30 c-3 -9 -8 -14 -10 -11 -3 3 -2 9 2 15 9 16 15 13 8 -4z m2767 12 c0 -2 -12
-14 -27 -28 -20 -18 -24 -19 -13 -4 18 24 40 42 40 32z m-119 -30 c-10 -9 -11
-8 -5 6 3 10 9 15 12 12 3 -3 0 -11 -7 -18z m-1765 -66 c104 -45 322 -121 350
-122 10 0 14 -3 7 -5 -15 -6 -163 33 -298 80 -55 19 -103 31 -107 27 -4 -4
-16 -31 -26 -61 -13 -39 -25 -56 -38 -58 -42 -5 -45 10 -17 96 15 45 30 82 33
82 4 0 47 -17 96 -39z m2094 22 c-8 -3 -55 -44 -105 -92 l-90 -86 90 93 c49
50 96 92 105 91 13 0 13 -1 0 -6z m-320 -28 c-10 -12 -39 -15 -145 -15 l-132
0 -32 -45 c-18 -25 -34 -45 -37 -45 -7 0 4 19 39 63 l29 37 133 0 c79 0 136 4
140 10 3 6 9 10 12 10 3 0 0 -7 -7 -15z m320 -58 c0 -1 -28 -29 -62 -62 l-63
-60 60 63 c55 58 65 67 65 59z m-2912 -28 c-2 -6 3 -14 11 -17 10 -3 12 0 8
12 -4 10 -3 15 3 11 13 -8 13 -35 1 -35 -21 0 -41 13 -41 26 0 8 5 14 10 14 6
0 9 -5 8 -11z"/>
<path d="M2567 7447 c-3 -8 -1 -20 4 -28 7 -11 9 -9 9 8 0 12 6 24 13 26 7 4
6 6 -4 6 -9 1 -19 -5 -22 -12z"/>
<path d="M3060 7300 c0 -5 5 -10 11 -10 5 0 7 5 4 10 -3 6 -8 10 -11 10 -2 0
-4 -4 -4 -10z"/>
<path d="M7379 7248 c-8 -27 -6 -38 5 -29 7 6 17 7 22 3 4 -4 2 1 -5 11 -12
16 -20 21 -22 15z"/>
<path d="M3900 6979 c0 -5 5 -7 10 -4 6 3 10 8 10 11 0 2 -4 4 -10 4 -5 0 -10
-5 -10 -11z"/>
<path d="M7129 6753 c-13 -16 -12 -17 4 -4 9 7 17 15 17 17 0 8 -8 3 -21 -13z"/>
<path d="M5325 6380 c-4 -11 -7 -80 -8 -153 -2 -144 12 -199 52 -212 12 -3 19
-10 16 -14 -5 -10 37 -6 112 10 47 9 53 13 64 47 18 53 16 236 -2 247 -5 4 -9
18 -9 33 0 15 -4 32 -8 37 -4 6 -42 11 -87 10 -44 0 -90 4 -102 8 -17 6 -23 3
-28 -13z m196 -117 c8 -9 9 -14 3 -10 -6 3 -11 0 -11 -7 0 -8 6 -12 13 -9 8 3
16 -19 24 -69 17 -99 6 -120 -70 -131 -70 -10 -117 -2 -130 23 -13 25 -11 181
2 198 15 18 78 16 78 -4 0 -8 5 -12 10 -9 6 4 7 11 4 17 -5 7 2 9 20 6 14 -3
29 -1 32 3 7 12 10 11 25 -8z"/>
<path d="M7188 6353 c7 -3 16 -2 19 1 4 3 -2 6 -13 5 -11 0 -14 -3 -6 -6z"/>
<path d="M3378 6403 c7 -3 16 -2 19 1 4 3 -2 6 -13 5 -11 0 -14 -3 -6 -6z"/>
<path d="M7088 6423 c7 -3 16 -2 19 1 4 3 -2 6 -13 5 -11 0 -14 -3 -6 -6z"/>
<path d="M4797 6095 c-13 -38 -65 -60 -139 -58 -38 1 -68 -2 -68 -7 0 -22 85
-172 107 -190 29 -22 65 -25 112 -9 55 19 65 69 32 161 -10 29 -23 69 -28 88
-8 30 -10 32 -16 15z"/>
<path d="M5695 6179 c-4 -6 -5 -12 -2 -15 2 -3 7 2 10 11 7 17 1 20 -8 4z"/>
<path d="M4432 5980 c-27 -22 -87 -41 -107 -34 -7 3 -16 1 -20 -5 -9 -16 11
-46 31 -46 9 0 19 -6 22 -14 3 -10 0 -12 -12 -8 -20 8 -20 4 -2 -31 17 -33 52
-66 63 -59 4 3 14 -1 20 -8 10 -11 9 -15 -5 -18 -10 -3 -5 -5 11 -6 35 -1 83
23 97 49 7 14 6 31 -5 63 -12 37 -63 138 -68 137 -1 -1 -12 -9 -25 -20z m-30
-102 c-9 -9 -15 -9 -24 1 -11 10 -10 11 5 6 10 -5 17 -2 17 6 0 7 3 9 7 6 4
-4 1 -13 -5 -19z m105 -60 c-3 -8 -6 -5 -6 6 -1 11 2 17 5 13 3 -3 4 -12 1
-19z"/>
<path d="M3408 6064 c-38 -20 -36 -28 2 -9 17 9 30 18 30 20 0 7 -1 6 -32 -11z"/>
<path d="M5156 6033 c-6 -14 -5 -15 5 -6 7 7 10 15 7 18 -3 3 -9 -2 -12 -12z"/>
<path d="M4190 5726 c0 -9 5 -16 10 -16 6 0 10 4 10 9 0 6 -4 13 -10 16 -5 3
-10 -1 -10 -9z"/>
<path d="M4142 5597 c-6 -18 -12 -40 -11 -48 0 -8 7 4 15 25 8 22 13 44 11 49
-1 4 -8 -7 -15 -26z"/>
<path d="M4183 5565 c0 -8 4 -12 9 -9 5 3 6 10 3 15 -9 13 -12 11 -12 -6z"/>
<path d="M4180 5511 c0 -6 4 -13 10 -16 6 -3 7 1 4 9 -7 18 -14 21 -14 7z"/>
<path d="M4219 5513 c0 -4 -2 -16 -4 -26 -2 -9 1 -15 6 -11 5 3 7 9 4 14 -3 4
0 10 7 12 9 3 9 6 0 12 -7 4 -12 4 -13 -1z"/>
<path d="M4103 5473 c-32 -113 -37 -143 -24 -156 10 -9 11 -9 6 4 -3 9 3 53
15 99 21 82 23 125 3 53z"/>
<path d="M4255 5454 c0 -12 3 -20 8 -17 4 2 7 10 7 18 0 7 6 15 13 18 6 3 3 5
-8 4 -14 -1 -20 -8 -20 -23z"/>
<path d="M4126 5448 c3 -5 10 -6 15 -3 13 9 11 12 -6 12 -8 0 -12 -4 -9 -9z"/>
<path d="M4166 5449 c3 -5 9 -7 14 -4 11 7 31 -20 28 -36 -2 -8 4 -13 14 -11
9 1 19 -2 23 -8 4 -6 3 -10 -2 -9 -22 4 -31 -3 -26 -21 4 -13 0 -20 -9 -20
-24 0 -29 12 -11 32 15 17 15 18 0 18 -10 0 -17 -7 -17 -16 0 -8 -4 -13 -8
-10 -5 3 -9 -1 -9 -9 0 -8 2 -13 5 -10 2 2 11 -2 19 -10 21 -21 32 -19 43 10
13 33 15 32 16 -10 1 -37 -5 -41 -38 -24 -16 9 -19 8 -13 -2 6 -8 4 -11 -6 -7
-10 4 -14 -3 -14 -23 -1 -16 3 -29 7 -29 4 0 8 9 8 19 0 11 3 22 8 24 12 8 54
-12 47 -23 -3 -5 -2 -10 3 -10 13 0 43 36 36 43 -9 9 16 38 27 31 5 -3 9 0 9
6 0 6 4 9 9 6 11 -7 9 13 -2 32 -5 6 -5 18 -1 25 4 6 -2 3 -14 -7 -26 -22 -28
-28 -7 -20 11 5 13 2 9 -10 -3 -9 -11 -13 -17 -9 -5 3 -7 1 -4 -4 4 -6 -1 -17
-10 -24 -15 -12 -16 -12 -10 3 4 12 2 15 -8 12 -11 -5 -13 2 -8 30 3 22 2 36
-5 36 -6 0 -13 8 -15 18 -4 15 -5 15 -6 -2 -1 -16 -3 -16 -19 5 -18 21 -58 37
-46 18z m101 -149 c-1 -11 -4 -20 -8 -20 -4 0 -6 11 -5 24 0 13 4 22 8 20 4
-2 6 -13 5 -24z"/>
<path d="M4147 5433 c-4 -3 -7 -14 -7 -24 0 -13 -5 -17 -17 -12 -10 3 -15 3
-12 -1 13 -14 48 -14 53 0 4 10 2 12 -6 8 -7 -5 -9 0 -6 14 6 23 5 26 -5 15z"/>
<path d="M4273 5403 c0 -16 1 -20 4 -10 2 9 9 15 14 12 5 -3 6 1 3 9 -9 25
-20 19 -21 -11z"/>
<path d="M4135 5320 c3 -5 8 -10 11 -10 2 0 4 5 4 10 0 6 -5 10 -11 10 -5 0
-7 -4 -4 -10z"/>
<path d="M4052 5220 c0 -19 2 -27 5 -17 2 9 2 25 0 35 -3 9 -5 1 -5 -18z"/>
<path d="M4998 5643 c-7 -9 -7 -13 1 -13 7 0 11 -8 9 -17 -5 -33 9 -41 54 -32
24 4 66 8 95 9 41 0 55 4 63 19 7 15 6 24 -6 36 -13 13 -34 15 -111 13 -60 -2
-98 -8 -105 -15z"/>
<path d="M3650 5369 c-22 -18 -22 -19 -3 -10 12 6 25 16 28 21 9 15 3 12 -25
-11z"/>
<path d="M6272 5140 c0 -19 2 -27 5 -17 2 9 2 25 0 35 -3 9 -5 1 -5 -18z"/>
<path d="M5000 4601 c0 -10 19 -25 25 -20 1 2 -3 10 -11 17 -8 7 -14 8 -14 3z"/>
<path d="M5070 4590 c0 -5 9 -8 20 -7 21 1 18 10 -5 13 -8 1 -15 -2 -15 -6z"/>
<path d="M5024 4548 c-4 -7 -4 -10 1 -6 4 4 14 3 21 -3 9 -7 14 -6 20 3 4 7 4
10 -1 6 -4 -4 -14 -3 -21 3 -9 7 -14 6 -20 -3z"/>
<path d="M5061 4364 c0 -11 3 -14 6 -6 3 7 2 16 -1 19 -3 4 -6 -2 -5 -13z"/>
<path d="M5070 7363 c-130 -14 -297 -34 -317 -39 -26 -7 -29 -22 -10 -47 11
-15 23 -15 102 -7 293 31 290 31 460 15 91 -9 169 -13 174 -11 5 3 11 17 13
30 4 21 0 25 -26 30 -90 16 -342 35 -396 29z"/>
<path d="M5662 7270 c-12 -34 -34 -26 212 -86 l149 -36 25 26 c14 14 23 28 21
31 -7 7 -301 80 -356 89 -39 6 -42 4 -51 -24z"/>
<path d="M4470 7279 c-224 -58 -310 -83 -310 -88 1 -3 9 -16 20 -29 l19 -23
182 46 c101 25 184 47 186 49 2 2 -1 15 -6 30 -11 28 -29 31 -91 15z"/>
<path d="M5030 7204 c-14 -2 -65 -9 -115 -15 -49 -6 -100 -15 -113 -20 -22 -8
-22 -10 -7 -45 8 -20 15 -43 15 -51 0 -8 -28 -62 -61 -121 -34 -59 -64 -111
-67 -116 -3 -5 8 -6 24 -3 16 4 117 18 224 32 210 28 226 28 463 -6 77 -11
141 -19 143 -17 2 3 -26 53 -63 112 l-66 108 17 55 c10 30 15 57 12 60 -17 17
-339 39 -406 27z"/>
<path d="M2680 6123 c-27 -98 -81 -371 -95 -483 -23 -188 -29 -414 -16 -590 7
-85 14 -156 16 -158 2 -2 18 6 35 18 26 19 31 27 26 49 -4 14 -9 109 -13 211
-6 193 6 415 33 570 21 128 65 311 72 306 4 -2 7 16 7 40 0 31 -5 47 -20 58
-29 22 -33 20 -45 -21z"/>
<path d="M7594 6146 l-21 -15 33 -143 c19 -79 43 -201 54 -273 24 -160 44
-440 36 -515 -3 -30 -5 -81 -6 -113 0 -32 -4 -56 -8 -53 -5 3 -8 -20 -6 -51 2
-49 7 -60 29 -76 14 -11 28 -17 31 -15 26 26 32 505 9 703 -27 234 -100 565
-124 565 -3 0 -16 -7 -27 -14z"/>
<path d="M7543 4397 c-25 -8 -35 -18 -44 -46 -6 -20 -40 -96 -75 -170 -35 -74
-64 -136 -64 -138 0 -1 15 -3 34 -3 32 0 34 2 86 113 57 122 102 236 98 246
-2 4 -17 3 -35 -2z"/>
<path d="M2750 4389 c0 -13 35 -99 96 -234 53 -118 58 -125 85 -125 16 0 29 4
29 9 0 6 -26 68 -59 139 -32 72 -64 145 -70 164 -9 27 -20 37 -46 45 -19 6
-35 7 -35 2z"/>
<path d="M3333 4235 c-15 -20 -43 -53 -60 -74 l-33 -38 -70 5 c-48 3 -70 1
-70 -7 0 -7 22 -12 58 -13 l57 -2 -54 -3 c-46 -4 -57 -1 -80 20 -21 20 -91 43
-91 30 0 -12 56 -113 64 -116 6 -1 83 0 171 4 88 4 211 8 273 9 61 1 112 5
112 8 0 4 20 6 45 4 25 -2 45 0 45 5 0 4 -44 52 -98 106 l-97 97 -72 0 c-69 0
-72 -1 -100 -35z m272 -154 c-3 -2 -6 -2 -7 0 -2 2 -23 27 -48 54 l-45 50 52
-49 c29 -28 50 -52 48 -55z m-95 7 c10 -21 10 -21 -3 -6 -11 15 -35 18 -143
21 l-129 3 132 2 c128 2 133 1 143 -20z"/>
<path d="M4793 4083 c15 -2 39 -2 55 0 15 2 2 4 -28 4 -30 0 -43 -2 -27 -4z"/>
<path d="M2988 4043 c7 -3 16 -2 19 1 4 3 -2 6 -13 5 -11 0 -14 -3 -6 -6z"/>
<path d="M4335 4020 c-538 -7 -837 -16 -1369 -40 -181 -8 -210 -12 -222 -27
-7 -10 -38 -54 -69 -98 l-55 -80 -55 -430 c-30 -236 -57 -443 -60 -459 l-5
-29 42 7 c365 59 1149 145 1553 170 918 58 1928 40 2795 -50 360 -37 970 -114
1038 -131 20 -5 2 36 -137 316 -89 176 -161 329 -161 340 0 10 18 76 41 146
23 71 38 137 35 149 -3 12 -21 56 -40 97 l-34 75 -418 12 c-231 7 -554 16
-719 22 -428 13 -1482 18 -2160 10z m783 -207 l3 -73 -146 0 -145 0 0 -55 0
-54 128 -3 127 -3 3 -29 c2 -17 1 -49 -3 -73 l-6 -42 -122 -3 -122 -3 -3 -52
-3 -53 145 0 146 0 0 -80 0 -80 -236 0 -237 0 7 92 c3 50 6 200 6 334 l0 243
98 4 c53 2 156 3 227 3 l130 -1 3 -72z m485 53 c56 -28 66 -56 69 -193 3 -132
-7 -163 -60 -185 -15 -7 -29 -13 -31 -14 -2 -2 29 -58 68 -126 39 -68 71 -127
71 -131 0 -4 -42 -7 -94 -7 l-95 0 -71 131 c-93 169 -102 169 -104 -1 l-1
-125 -85 0 -85 0 -3 325 c-1 179 0 331 3 338 4 11 43 13 192 10 160 -3 194 -6
226 -22z m-1426 -147 l78 -161 90 159 90 158 74 0 73 0 -2 -185 c-2 -102 -5
-252 -9 -335 l-6 -150 -84 0 -84 0 2 138 c1 75 0 137 -2 137 -3 0 -30 -43 -61
-95 -54 -91 -58 -95 -91 -95 -34 0 -36 2 -87 103 l-52 102 -9 -150 c-4 -82
-11 -153 -15 -156 -4 -4 -44 -9 -89 -13 -75 -6 -83 -5 -83 11 0 10 4 68 10
128 5 61 14 207 20 325 6 118 13 221 15 228 3 8 27 12 74 12 l69 0 79 -161z
m1801 16 c45 -77 86 -146 91 -154 6 -10 31 30 87 140 l79 154 70 -3 c38 -2 71
-5 73 -6 1 -2 11 -131 22 -287 11 -156 22 -310 26 -341 l7 -58 -54 0 c-30 0
-70 3 -90 6 l-36 6 -7 97 c-3 53 -9 121 -13 150 l-6 55 -48 -97 -49 -97 -40 0
c-39 0 -39 0 -101 103 l-61 102 7 -152 6 -153 -53 0 c-29 0 -69 3 -89 6 l-37
6 -6 307 c-4 168 -9 319 -12 334 l-6 28 78 -3 79 -3 83 -140z m-2260 58 c11
-43 51 -200 90 -349 l70 -272 -30 -6 c-17 -3 -59 -6 -93 -6 -60 0 -63 1 -69
28 -4 15 -11 43 -17 63 l-9 36 -52 -4 c-140 -10 -132 -6 -162 -82 l-27 -69
-85 -7 c-47 -4 -88 -4 -91 -1 -7 7 18 72 119 321 119 291 171 410 182 417 6 4
43 8 82 8 l72 0 20 -77z m3074 58 c9 -8 131 -289 228 -524 40 -98 76 -174 80
-170 9 11 123 314 123 327 0 6 -48 89 -106 185 -59 95 -107 178 -107 183 0 6
10 8 23 4 12 -3 52 -6 88 -6 l66 0 63 -105 c35 -58 66 -102 69 -99 3 3 22 47
41 97 l35 92 75 3 c41 1 81 -2 88 -6 9 -6 -3 -50 -51 -179 l-64 -172 124 -207
c68 -114 122 -209 119 -211 -2 -3 -44 0 -93 6 -102 12 -101 11 -178 150 -27
50 -52 90 -55 91 -3 0 -18 -37 -34 -83 -16 -45 -32 -91 -36 -102 -8 -20 -10
-21 -161 -8 -231 19 -211 12 -243 93 -26 67 -29 70 -60 70 -18 0 -60 3 -93 6
l-59 6 -15 -63 -15 -64 -84 4 c-47 2 -88 5 -91 7 -3 2 11 77 33 166 59 249
107 450 119 492 l11 38 76 -7 c42 -4 80 -10 84 -14z m-3560 -30 c32 -29 33
-31 31 -107 -2 -43 -6 -81 -10 -85 -5 -4 -42 -9 -83 -10 l-75 -2 -3 41 -3 42
-77 -6 c-42 -4 -80 -9 -83 -13 -9 -8 -61 -430 -55 -440 5 -8 145 4 154 14 3 3
9 30 12 60 l6 55 -39 0 -40 0 6 72 c3 39 11 74 17 78 14 9 240 23 248 16 10
-11 -27 -326 -42 -355 -19 -36 -57 -66 -99 -80 -49 -16 -292 -41 -326 -35 -38
8 -77 46 -84 82 -9 44 71 581 91 615 40 69 91 84 294 86 l128 1 32 -29z"/>
<path d="M4796 3576 c18 -8 35 -19 38 -25 4 -6 12 -8 18 -5 7 4 8 2 4 -4 -4
-7 -2 -12 3 -12 6 0 11 5 11 10 0 6 6 5 14 -2 12 -11 6 -14 -33 -19 -29 -4 -1
-6 77 -7 l122 -2 0 40 0 40 -142 0 c-130 -1 -140 -2 -112 -14z"/>
<path d="M4692 3363 l-2 -123 153 1 c94 0 144 4 132 9 -11 5 -15 9 -9 9 15 1
13 31 -2 31 -7 0 -15 4 -18 9 -3 5 7 7 23 6 16 -1 28 3 28 10 0 7 -7 12 -16
12 -9 0 -53 1 -98 2 l-83 1 -1 28 c0 15 -3 21 -6 15 -2 -7 -9 -13 -15 -13 -6
0 -4 8 4 18 20 22 21 73 2 65 -8 -3 -22 3 -32 14 -9 10 -14 14 -9 9 4 -6 6
-19 6 -30 -1 -18 -2 -18 -6 -3 -8 30 -28 13 -33 -29 -4 -36 -5 -35 -10 21 -5
48 -7 35 -8 -62z m42 41 c3 -8 2 -12 -4 -9 -6 3 -10 10 -10 16 0 14 7 11 14
-7z"/>
<path d="M5079 3323 c-1 -10 -1 -22 0 -27 3 -18 -21 -37 -34 -26 -9 8 -15 8
-20 0 -3 -5 -4 -11 -1 -11 22 -5 33 -4 45 5 12 9 13 7 8 -6 -3 -10 -2 -18 3
-18 6 0 10 23 10 50 0 47 -9 71 -11 33z"/>
<path d="M5018 3323 c7 -3 16 -2 19 1 4 3 -2 6 -13 5 -11 0 -14 -3 -6 -6z"/>
<path d="M5053 3318 c1 -7 -4 -12 -12 -10 -12 3 -12 0 -1 -13 7 -8 15 -13 18
-10 11 10 12 45 2 45 -6 0 -9 -6 -7 -12z"/>
<path d="M5350 3680 l0 -61 78 3 77 3 0 55 0 55 -77 3 -78 3 0 -61z"/>
<path d="M5563 3593 c25 -7 21 -21 -5 -18 -13 1 -25 4 -28 5 -9 4 -125 -2
-133 -7 -4 -3 -3 -11 3 -18 8 -9 8 -15 0 -20 -6 -3 -8 -10 -6 -14 3 -4 -9 -8
-27 -9 -45 -4 -47 -12 -2 -12 43 0 85 -34 85 -70 0 -5 7 -10 15 -10 8 0 15 -5
15 -11 0 -5 -5 -7 -11 -3 -8 4 -8 0 0 -15 7 -11 16 -21 22 -21 6 0 7 -5 4 -10
-4 -6 -1 -9 6 -8 6 2 14 -3 17 -11 3 -9 0 -11 -8 -6 -7 4 0 -14 15 -42 23 -41
32 -49 51 -45 13 2 23 7 22 11 -2 22 4 32 17 28 26 -11 24 8 -5 58 -18 31 -30
43 -30 31 0 -15 -3 -16 -15 -6 -10 8 -12 17 -6 28 6 11 3 29 -10 54 -10 20
-19 39 -19 42 0 3 15 8 34 12 38 7 72 37 61 53 -3 6 -1 11 4 11 6 0 11 7 11
15 0 11 -11 15 -47 14 -27 -1 -40 -3 -30 -6z m57 -47 c0 -2 -8 -10 -17 -17
-16 -13 -17 -12 -4 4 13 16 21 21 21 13z m-90 -107 c0 -3 -7 -12 -15 -19 -8
-7 -15 -20 -15 -29 1 -14 2 -14 11 2 5 9 15 17 20 17 6 0 8 -4 4 -9 -3 -5 -1
-12 5 -16 5 -3 14 -14 19 -23 7 -14 5 -18 -10 -19 -16 -2 -19 2 -13 20 6 18 4
20 -7 10 -11 -9 -18 -8 -32 1 -16 13 -16 15 3 39 17 22 19 31 10 49 -11 22
-10 22 4 4 9 -11 16 -23 16 -27z"/>
<path d="M5228 3583 c7 -3 16 -2 19 1 4 3 -2 6 -13 5 -11 0 -14 -3 -6 -6z"/>
<path d="M5380 3539 c0 -5 5 -7 10 -4 6 3 10 8 10 11 0 2 -4 4 -10 4 -5 0 -10
-5 -10 -11z"/>
<path d="M5310 3414 c0 -24 -2 -25 -17 -13 -16 13 -17 12 -5 -3 8 -10 9 -19 3
-22 -5 -4 -13 3 -16 15 -4 11 -9 18 -11 16 -3 -2 1 -16 7 -31 11 -24 13 -24
25 -8 7 9 14 12 14 6 0 -6 -3 -14 -7 -18 -4 -3 -8 -17 -10 -29 -5 -37 -12 -49
-25 -41 -8 5 -9 2 -4 -12 6 -16 5 -16 -13 3 -23 24 -27 43 -10 43 5 0 8 -4 5
-8 -3 -5 1 -9 8 -9 11 0 11 5 0 26 -10 20 -11 28 -1 40 10 14 10 14 -4 4 -9
-7 -19 -10 -22 -6 -4 3 -7 -21 -7 -55 l0 -62 50 0 50 0 -1 95 c0 52 -3 95 -5
95 -2 0 -4 -12 -4 -26z"/>
<path d="M5260 3351 c0 -10 19 -25 25 -20 1 2 -3 10 -11 17 -8 7 -14 8 -14 3z"/>
<path d="M5648 3243 c7 -3 16 -2 19 1 4 3 -2 6 -13 5 -11 0 -14 -3 -6 -6z"/>
<path d="M4348 3564 c-8 -17 -9 -28 -1 -32 5 -4 12 -14 15 -22 3 -11 9 -6 21
16 9 17 22 36 30 42 24 21 28 -10 21 -178 l-7 -156 35 4 c30 3 35 7 32 28 -1
13 2 26 7 30 5 3 9 0 9 -6 0 -7 6 -5 15 4 12 11 15 44 15 155 l0 141 -90 0
c-87 0 -91 -1 -102 -26z m19 -9 c0 -8 -4 -12 -9 -9 -5 3 -6 10 -3 15 9 13 12
11 12 -6z m157 -247 c-3 -4 -11 -5 -19 -1 -21 7 -19 12 4 10 11 0 18 -5 15 -9z"/>
<path d="M3965 3464 c-4 -66 -4 -119 2 -125 5 -5 21 4 38 23 19 20 23 29 13
25 -10 -3 -20 -1 -24 5 -4 6 -3 8 3 5 6 -4 19 0 29 7 17 13 17 14 -9 9 -31 -6
-36 8 -9 28 15 13 16 12 3 -4 -12 -15 -12 -17 1 -12 9 4 20 16 26 28 l10 22
10 -25 c9 -21 11 -16 12 35 0 33 5 67 10 75 9 13 13 12 28 -5 31 -35 51 -30
36 9 -5 13 -23 16 -89 16 l-83 0 -7 -116z m65 96 c0 -5 -8 -10 -17 -10 -15 0
-16 2 -3 10 19 12 20 12 20 0z m-4 -28 c-2 -4 -1 -14 4 -22 5 -9 5 -19 -2 -27
-14 -17 -25 -16 -25 2 0 8 5 15 10 15 5 0 7 6 4 14 -3 8 -3 17 0 20 9 9 15 7
9 -2z"/>
<path d="M4151 3575 c0 -5 3 -16 8 -23 7 -11 9 -10 14 3 4 9 3 14 -2 10 -5 -3
-12 1 -14 7 -3 7 -6 9 -6 3z"/>
<path d="M4140 3500 c6 -11 13 -20 16 -20 2 0 0 9 -6 20 -6 11 -13 20 -16 20
-2 0 0 -9 6 -20z"/>
<path d="M4221 3468 c-11 -18 -21 -28 -21 -22 0 5 6 16 13 24 10 12 9 12 -5 1
-10 -7 -18 -21 -18 -30 0 -14 -2 -14 -10 -1 -20 31 -9 -3 20 -60 26 -52 33
-58 51 -52 12 5 37 37 57 73 20 35 29 58 20 51 -14 -11 -16 -10 -14 12 3 22 1
23 -18 12 -29 -17 -51 -14 -50 7 2 24 -1 22 -25 -15z m59 -42 c0 -2 -6 -9 -14
-15 -11 -9 -16 -9 -22 0 -4 7 -3 9 4 5 6 -3 13 -2 17 4 6 10 15 14 15 6z m-10
-46 c0 -5 -10 -15 -22 -21 l-23 -12 20 21 c23 24 25 25 25 12z"/>
<path d="M4255 3479 c-3 -4 2 -6 10 -5 21 3 28 13 10 13 -9 0 -18 -4 -20 -8z"/>
<path d="M4006 3342 c-3 -5 1 -9 9 -9 8 0 12 4 9 9 -3 4 -7 8 -9 8 -2 0 -6 -4
-9 -8z"/>
<path d="M4050 3298 c0 -25 -3 -29 -12 -20 -15 15 -28 15 -28 1 0 -5 6 -7 13
-3 7 4 9 3 4 -2 -5 -5 -12 -9 -15 -9 -13 0 -32 -16 -32 -27 0 -6 8 -7 18 -3
13 5 14 3 5 -6 -18 -18 -38 -5 -41 27 -1 15 -5 30 -8 33 -3 3 -4 -12 -2 -34
l3 -40 53 -3 52 -3 0 60 c0 34 -2 61 -5 61 -3 0 -5 -14 -5 -32z"/>
<path d="M3995 3310 c-3 -5 -2 -10 4 -10 5 0 13 5 16 10 3 6 2 10 -4 10 -5 0
-13 -4 -16 -10z"/>
<path d="M4517 3257 c-3 -8 1 -14 8 -14 7 0 11 6 8 14 -3 7 -6 13 -8 13 -2 0
-5 -6 -8 -13z"/>
<path d="M5792 3421 l3 -181 53 0 52 0 0 95 c0 63 -4 95 -11 95 -6 0 -9 7 -5
15 3 8 1 15 -4 15 -6 0 -10 -4 -10 -10 0 -5 -5 -10 -11 -10 -5 0 -7 6 -3 13 6
9 4 9 -8 -1 -12 -10 -18 -10 -23 -1 -8 12 14 31 26 23 4 -2 9 5 12 16 3 11 0
20 -6 20 -6 0 -7 3 -4 6 4 4 14 1 22 -6 9 -7 15 -9 14 -4 -1 5 -1 24 0 43 1
28 4 33 21 28 11 -3 22 -2 25 2 2 4 -26 9 -62 10 -37 1 -71 5 -76 8 -5 3 -7
-72 -5 -176z m84 -120 c0 -11 -5 -19 -11 -18 -5 1 -9 -4 -7 -10 3 -18 -3 -16
-19 4 -9 10 -9 14 -2 10 7 -5 16 1 23 13 13 25 16 25 16 1z"/>
<path d="M6126 3581 c-3 -4 6 -6 19 -3 14 2 32 1 41 -2 16 -6 15 -8 -2 -21
-10 -9 -14 -15 -9 -14 22 3 27 -2 15 -16 -7 -8 -9 -15 -4 -15 10 0 44 56 44
71 0 11 -97 12 -104 0z"/>
<path d="M6251 3574 c7 -9 16 -85 23 -185 l10 -171 43 4 c24 2 43 0 43 -4 0
-5 5 -8 10 -8 15 0 12 57 -4 63 -7 3 -20 0 -27 -6 -11 -10 -11 -9 0 5 7 10 18
15 23 12 7 -5 8 42 3 142 -4 82 -8 150 -9 150 0 1 -29 4 -64 7 -53 4 -61 3
-51 -9z m59 -319 c11 -13 10 -14 -4 -9 -9 3 -16 10 -16 15 0 13 6 11 20 -6z"/>
<path d="M6040 3520 c0 -7 -7 -10 -16 -6 -8 3 -12 2 -9 -4 6 -9 -8 -15 -29
-11 -12 2 -2 -20 44 -100 30 -50 47 -69 62 -69 14 0 18 5 14 16 -3 8 -2 13 2
10 5 -3 18 14 29 38 16 32 18 43 8 43 -8 0 -11 -5 -8 -10 3 -6 1 -7 -6 -3 -8
5 -7 13 4 29 22 31 18 43 -5 16 -12 -15 -18 -17 -14 -8 3 10 0 20 -7 25 -8 5
-10 3 -4 -6 5 -9 4 -11 -4 -6 -9 6 -9 11 1 24 10 12 10 14 1 8 -7 -4 -13 -3
-13 2 0 6 -7 13 -16 16 -10 4 -13 2 -8 -7 5 -8 2 -7 -9 2 -13 10 -17 10 -17 1z"/>
<path d="M3567 3535 c-15 -44 -27 -83 -27 -88 0 -13 80 -8 85 6 2 6 -4 46 -13
87 l-18 75 -27 -80z"/>
<path d="M3645 3538 c4 -18 12 -37 18 -43 7 -7 7 -6 2 4 -6 11 -4 13 9 8 10
-4 15 -3 11 3 -3 6 2 10 11 10 16 0 16 1 -2 14 -20 15 -17 19 31 29 11 3 -4 5
-33 6 l-54 1 7 -32z"/>
<path d="M3394 3436 c-10 -28 -19 -55 -19 -61 0 -5 -6 -16 -12 -23 -7 -7 -13
-19 -13 -25 0 -9 2 -9 8 -1 4 6 18 10 32 8 14 -1 30 -3 35 -3 6 -1 3 -6 -5
-11 -11 -7 -11 -10 -2 -10 7 0 10 -4 7 -10 -3 -5 -1 -10 4 -10 6 0 11 4 11 9
0 5 57 12 128 17 70 5 113 10 95 12 -20 2 -30 8 -27 15 3 8 -5 13 -17 14 -12
1 -26 8 -30 15 -5 7 -12 13 -16 14 -4 0 -15 3 -23 7 -8 3 -24 7 -35 9 -12 2
-21 12 -23 26 -2 15 -9 22 -17 18 -7 -2 -24 5 -38 18 l-24 23 -19 -51z"/>
<path d="M3771 3422 c-1 -7 -5 -11 -10 -7 -5 3 -13 1 -16 -5 -4 -6 -1 -9 5 -8
7 2 14 -5 15 -14 2 -12 -3 -18 -15 -18 -10 0 -22 -5 -26 -12 -4 -7 -3 -8 4 -4
7 4 12 1 12 -8 0 -9 8 -16 18 -16 14 0 14 -2 3 -9 -10 -7 -19 -5 -26 6 -10 13
-14 13 -20 3 -5 -9 -4 -11 3 -6 7 4 12 2 12 -3 0 -6 -4 -11 -9 -11 -17 0 -21
-32 -10 -76 l11 -44 52 6 c28 4 52 8 54 9 1 1 -10 54 -27 116 -16 63 -30 108
-30 101z m45 -194 c4 -7 3 -8 -4 -4 -7 4 -12 2 -12 -5 0 -7 -3 -10 -6 -6 -6 5
3 27 11 27 2 0 7 -5 11 -12z"/>
<path d="M3565 3400 c-3 -6 1 -7 9 -4 18 7 21 14 7 14 -6 0 -13 -4 -16 -10z"/>
<path d="M3606 3401 c-4 -5 3 -7 14 -4 23 6 26 13 6 13 -8 0 -17 -4 -20 -9z"/>
<path d="M3316 3245 c-10 -24 -14 -50 -10 -56 4 -8 3 -9 -4 -5 -7 4 -12 1 -12
-8 0 -12 11 -16 51 -16 48 0 51 2 64 34 13 29 13 38 1 61 -12 23 -16 24 -27
12 -12 -13 -16 -12 -30 4 -16 18 -17 17 -33 -26z"/>
<path d="M6721 3548 c-7 -35 -14 -71 -17 -80 -5 -15 2 -18 40 -18 25 0 46 4
46 8 0 14 -42 137 -50 145 -4 5 -13 -20 -19 -55z"/>
<path d="M6637 3551 c3 -10 0 -28 -6 -39 -6 -12 -7 -31 -2 -48 10 -35 4 -57
-12 -47 -8 5 -8 2 0 -9 13 -15 8 -28 -9 -28 -5 0 -7 4 -3 9 3 6 -4 15 -15 21
-21 11 -28 50 -9 50 5 0 7 -4 4 -10 -3 -5 1 -10 9 -10 9 0 16 3 17 8 4 42 3
62 -3 62 -5 0 -11 -7 -14 -15 -4 -8 -10 -13 -14 -10 -5 3 -20 -46 -34 -107
-37 -156 -38 -166 -27 -149 7 11 10 9 16 -8 5 -17 14 -21 45 -21 38 0 39 1 47
42 7 35 5 46 -9 60 -15 15 -16 22 -7 41 11 19 10 21 -3 9 -13 -11 -18 -11 -24
0 -4 7 -4 10 0 6 5 -4 18 2 29 13 20 19 22 19 29 2 5 -11 6 -5 3 16 -2 24 -1
31 7 23 6 -6 17 -8 24 -5 10 4 8 10 -9 25 -12 11 -17 17 -11 14 7 -4 14 10 18
37 4 23 9 52 13 65 4 19 1 22 -25 22 -25 0 -29 -3 -25 -19z m-48 -157 c4 3 8
-1 8 -8 0 -7 -6 -13 -13 -13 -7 0 -11 4 -8 8 2 4 0 10 -6 14 -5 3 -10 12 -10
18 0 7 5 4 11 -6 6 -9 14 -15 18 -13z"/>
<path d="M6801 3536 c5 -16 10 -31 13 -33 10 -10 46 9 46 25 0 13 -2 14 -9 3
-6 -9 -11 -10 -15 -2 -4 6 7 14 26 19 32 9 32 9 -18 13 l-51 4 8 -29z"/>
<path d="M7238 3532 c2 -7 8 -9 11 -4 3 5 13 12 21 15 8 3 3 5 -11 4 -18 -1
-25 -6 -21 -15z"/>
<path d="M7405 3509 c-5 -5 -19 -16 -30 -25 -13 -9 -15 -13 -5 -12 8 2 19 8
23 13 5 6 7 4 5 -4 -2 -8 -12 -15 -22 -17 -10 -1 -24 -8 -30 -14 -8 -8 -6 -9
9 -4 19 7 18 5 -3 -18 -23 -25 -22 -52 3 -62 7 -2 46 -59 86 -126 39 -66 75
-123 80 -125 12 -8 39 6 39 21 0 13 13 19 34 15 5 -1 2 8 -6 21 -8 13 -30 49
-49 81 -28 48 -38 57 -56 54 -14 -3 -23 1 -23 9 0 7 -4 14 -10 16 -5 2 -7 13
-4 25 4 13 11 20 17 16 11 -7 9 -4 -31 61 -16 25 -22 46 -18 62 7 26 6 28 -9
13z"/>
<path d="M6891 3482 c-19 -3 -21 -6 -10 -13 11 -7 11 -9 1 -9 -8 0 -10 -5 -6
-12 5 -7 2 -9 -9 -5 -12 4 -14 2 -10 -10 5 -12 3 -14 -7 -8 -10 6 -12 4 -8 -7
5 -11 0 -14 -18 -12 -21 2 -23 0 -13 -12 10 -12 9 -13 -5 -8 -12 5 -15 2 -10
-12 5 -15 4 -16 -5 -4 -5 8 -13 11 -17 7 -4 -4 -13 -2 -21 5 -8 6 -13 7 -12 2
2 -16 -13 -54 -23 -54 -5 0 -7 4 -3 9 3 5 0 13 -6 17 -7 4 -9 3 -5 -4 3 -6 -2
-15 -11 -21 -14 -8 0 -11 57 -12 126 -2 131 -5 161 -79 20 -51 31 -66 49 -68
22 -4 23 -2 10 14 -9 11 -10 15 -2 10 11 -7 17 11 13 37 -1 5 3 6 8 3 26 -16
16 37 -25 137 -25 62 -46 112 -47 112 -1 1 -13 -1 -26 -3z"/>
<path d="M7315 3381 c2 -14 -1 -18 -14 -14 -21 5 -54 -24 -45 -39 4 -6 3 -8
-2 -5 -13 7 -28 -3 -42 -28 -8 -14 -12 -16 -12 -5 -1 8 -14 -18 -31 -59 -16
-40 -28 -75 -27 -76 5 -4 118 -17 118 -13 0 2 18 53 39 113 30 81 37 113 30
127 -13 23 -19 23 -14 -1z"/>
<path d="M6646 3338 c3 -5 10 -6 15 -3 13 9 11 12 -6 12 -8 0 -12 -4 -9 -9z"/>
<path d="M7591 3113 c6 -7 19 -12 28 -12 13 1 13 2 -2 6 -9 2 -15 8 -13 12 3
4 -1 8 -9 8 -11 0 -12 -4 -4 -14z"/>
<path d="M2798 3493 c-29 -3 -38 -9 -38 -23 0 -13 9 -22 25 -26 14 -3 25 -9
25 -13 0 -4 7 -8 15 -8 8 0 12 4 9 9 -3 4 -1 8 5 8 5 0 11 -6 14 -12 2 -7 6 6
8 30 4 33 1 42 -11 40 -8 -1 -32 -3 -52 -5z m22 -37 c0 -9 -7 -12 -20 -9 -11
3 -17 9 -14 14 8 14 34 10 34 -5z"/>
<path d="M3011 3463 c0 -18 2 -32 7 -32 19 3 25 -2 12 -11 -13 -8 -13 -10 1
-10 12 0 16 8 15 29 0 17 -5 27 -12 24 -7 -2 -14 4 -17 14 -3 10 -5 4 -6 -14z"/>
<path d="M2740 3336 c-8 -64 -9 -100 -3 -108 6 -7 9 -21 8 -30 -2 -10 1 -20 6
-24 5 -3 9 2 9 10 0 9 4 16 9 16 5 0 8 -11 5 -25 -3 -17 0 -24 8 -23 7 2 12
-2 11 -9 -2 -8 4 -10 14 -6 12 5 14 3 8 -7 -6 -10 -4 -12 8 -7 10 3 17 2 17
-3 0 -5 -14 -8 -30 -8 -17 1 -33 -2 -37 -5 -10 -11 63 -8 194 8 131 15 147 20
178 57 l20 23 -26 -22 c-29 -26 -44 -30 -35 -8 3 9 -4 21 -19 31 -14 9 -22 20
-19 25 3 5 -3 6 -12 2 -11 -4 -13 -8 -6 -11 7 -2 12 -10 12 -19 0 -12 -3 -12
-17 2 -14 15 -29 16 -100 10 -105 -9 -111 -4 -102 72 9 75 10 113 1 93 -8 -18
-32 -25 -32 -9 0 5 -4 7 -10 4 -14 -9 -12 19 2 33 9 9 8 12 -7 12 -17 0 -18 2
-5 10 9 6 10 10 3 10 -6 0 -15 -5 -19 -11 -5 -8 -9 -8 -14 1 -4 6 -13 -31 -20
-84z m360 -160 c0 -11 -19 -15 -25 -6 -3 5 1 10 9 10 9 0 16 -2 16 -4z m-223
-62 c-3 -3 -12 -4 -19 -1 -8 3 -5 6 6 6 11 1 17 -2 13 -5z"/>
<path d="M3140 3380 c6 -11 13 -20 16 -20 2 0 0 9 -6 20 -6 11 -13 20 -16 20
-2 0 0 -9 6 -20z"/>
<path d="M3081 3354 c0 -11 3 -14 6 -6 3 7 2 16 -1 19 -3 4 -6 -2 -5 -13z"/>
<path d="M3181 3344 c0 -11 3 -14 6 -6 3 7 2 16 -1 19 -3 4 -6 -2 -5 -13z"/>
<path d="M3140 3340 c-8 -5 -12 -11 -10 -14 3 -2 14 2 24 10 22 15 10 19 -14
4z"/>
<path d="M3071 3264 c0 -11 3 -14 6 -6 3 7 2 16 -1 19 -3 4 -6 -2 -5 -13z"/>
<path d="M3119 3233 c-13 -16 -12 -17 4 -4 16 13 21 21 13 21 -2 0 -10 -8 -17
-17z"/>
<path d="M2722 3190 c0 -19 2 -27 5 -17 2 9 2 25 0 35 -3 9 -5 1 -5 -18z"/>
<path d="M2730 3135 c0 -2 6 -8 13 -14 10 -8 14 -7 14 2 0 8 -6 14 -14 14 -7
0 -13 -1 -13 -2z"/>
<path d="M4878 3013 l-47 -4 -4 -87 -3 -87 -2 88 -2 87 -70 0 -70 0 0 -144 c0
-125 2 -145 18 -157 15 -13 15 -13 -3 -3 -18 10 -20 25 -25 155 l-5 144 -37 3
-38 3 0 -147 c0 -139 1 -149 23 -172 l22 -25 -27 18 -28 17 0 155 0 154 -32
-3 -33 -3 -3 -94 c-2 -64 1 -98 10 -110 12 -14 11 -15 -4 -2 -15 11 -18 30
-18 107 l0 94 -67 0 c-80 0 -436 -21 -442 -26 -2 -1 10 -15 25 -29 l29 -26
-37 22 c-22 12 -38 16 -38 10 0 -6 6 -11 13 -11 9 0 9 -2 -1 -9 -11 -7 -10 -9
3 -15 9 -3 14 -10 11 -15 -3 -5 2 -15 11 -22 12 -10 14 -10 9 -1 -4 6 -3 12 2
12 11 0 25 -30 17 -38 -3 -3 -5 0 -5 6 0 6 -7 9 -17 5 -14 -5 -12 -10 12 -30
21 -19 30 -21 36 -12 4 7 5 18 1 24 -11 17 -11 35 -1 41 6 3 5 12 -3 21 -7 8
35 -18 93 -58 94 -66 124 -94 102 -94 -5 0 -18 -9 -30 -20 -18 -15 -20 -22
-10 -34 16 -20 3 -12 -98 58 -150 103 -236 172 -229 183 5 7 2 8 -5 4 -7 -5
-20 -1 -29 8 -13 11 -29 13 -66 8 l-48 -7 88 -71 c226 -181 513 -362 828 -521
187 -94 476 -223 501 -223 48 0 571 244 780 365 189 108 474 302 594 403 46
40 51 47 35 53 -36 14 -67 9 -100 -16 -18 -14 -39 -24 -46 -23 -7 2 -12 -2
-11 -9 2 -7 -33 -38 -77 -70 -65 -47 -88 -58 -120 -59 -30 0 -48 -8 -74 -32
-19 -17 -37 -28 -41 -24 -4 4 -3 -3 4 -15 10 -20 6 -25 -52 -61 -80 -50 -111
-66 -103 -54 3 6 0 16 -7 24 -7 7 -16 21 -20 31 -4 11 -12 15 -19 11 -9 -5
-10 -4 -3 3 28 28 192 120 192 107 0 -7 -3 -11 -7 -9 -4 2 -7 -1 -7 -8 0 -7 8
-13 18 -13 10 0 16 3 14 6 -1 3 3 11 11 18 9 8 14 9 14 2 0 -6 5 -8 11 -5 6 4
8 9 5 12 -3 3 1 12 9 19 8 8 12 21 9 28 -3 9 26 35 78 72 90 64 104 72 94 55
-4 -6 -2 -11 3 -11 13 0 14 10 3 27 -7 11 -65 15 -464 36 l-58 3 0 -97 c0 -55
4 -101 10 -104 6 -3 10 -12 10 -18 0 -7 -5 -4 -11 6 -9 15 -13 16 -27 5 -15
-11 -15 -11 -4 3 9 12 12 46 10 110 l-3 94 -32 3 -33 3 0 -154 0 -155 -37 -27
-38 -28 33 34 32 35 0 147 0 147 -40 0 -39 0 -4 -82 -3 -83 -2 83 -2 82 -70 0
-70 0 -2 -197 -2 -198 -6 200 -5 200 -32 3 -33 3 -2 -53 -1 -53 -6 50 c-5 41
-9 50 -26 50 -14 0 -21 -8 -23 -28 -2 -15 -14 -34 -27 -43 -18 -12 -25 -27
-28 -62 l-3 -47 -2 46 c-2 37 3 50 23 69 14 13 25 34 25 47 0 22 -2 23 -94 23
-89 0 -95 -1 -98 -22 -2 -12 -10 -23 -18 -25 -12 -4 -13 -3 -1 5 8 6 11 17 7
28 -6 16 -7 16 -21 -2 -13 -16 -14 -16 -9 -1 5 15 -1 17 -44 17 l-51 0 -4 -52
-3 -53 -2 53 -2 52 -42 -2 c-24 -1 -64 -3 -90 -5z m349 -140 c-2 -27 -3 -5 -3
47 0 52 1 74 3 48 2 -27 2 -69 0 -95z m-1214 42 c4 -8 3 -16 -1 -19 -4 -3 -9
4 -9 15 -2 23 3 25 10 4z m1134 -250 l-1 -160 -3 155 -3 155 -38 33 -37 33 42
-28 42 -28 -2 -160z m175 77 c14 -27 -1 -48 -26 -39 -17 7 -22 47 -6 47 6 0
11 12 11 28 1 19 3 22 6 7 2 -11 9 -30 15 -43z m304 -51 c-29 -31 -34 -61 -10
-61 10 0 14 6 10 15 -3 8 -1 15 5 15 6 0 9 -8 7 -17 -2 -10 -12 -18 -23 -18
-33 0 -33 59 -1 81 20 13 26 25 28 58 l1 41 4 -44 c4 -36 0 -48 -21 -70z m604
85 c0 -2 -12 -11 -27 -20 l-28 -17 24 20 c23 21 31 25 31 17z m-1173 -82 c3
-8 1 -20 -6 -27 -6 -6 -12 -40 -13 -76 l-2 -66 -3 65 c-2 35 -9 70 -15 77 -13
17 -3 43 17 43 9 0 18 -7 22 -16z m-633 -36 c-5 -7 -2 -9 8 -6 8 4 46 -12 84
-34 38 -22 61 -37 52 -34 -17 5 -23 -5 -18 -29 1 -5 -1 -7 -5 -3 -4 4 -14 1
-21 -7 -16 -15 -19 -29 -5 -21 5 3 12 -1 15 -9 7 -18 4 -17 -116 52 -75 43
-97 60 -61 46 13 -5 15 -3 9 12 -4 11 -4 17 -1 13 4 -3 15 1 24 10 13 13 15
21 7 31 -9 12 -7 12 12 2 13 -7 20 -17 16 -23z m298 -20 c-6 -6 -7 0 -4 19 5
21 7 23 10 9 2 -10 0 -22 -6 -28z m561 -22 c31 -25 37 -35 37 -68 0 -21 6 -47
12 -58 10 -15 10 -22 1 -31 -16 -16 -43 -4 -42 18 1 17 2 17 6 1 5 -22 33 -24
33 -3 0 8 -4 15 -10 15 -5 0 -10 22 -10 48 0 46 -3 50 -45 82 -25 19 -45 35
-45 37 0 6 21 -8 63 -41z m-352 -13 c13 -16 12 -17 -3 -5 -9 8 -23 10 -29 6
-8 -4 -9 -3 -5 4 10 17 21 15 37 -5z m872 -3 c-4 -14 -1 -20 8 -18 8 2 13 -3
12 -9 -2 -7 3 -13 11 -13 39 0 18 -23 -58 -64 -46 -25 -88 -46 -93 -46 -4 0
-2 4 5 8 7 5 -3 8 -27 8 -25 0 -37 -4 -33 -11 3 -5 -2 -4 -11 4 -17 13 -22 7
-19 -20 1 -4 -9 -5 -21 -2 -18 4 -19 3 -7 -6 13 -9 12 -11 -3 -11 -10 0 -15
-5 -12 -11 4 -6 14 -8 24 -4 47 18 -16 -17 -105 -58 -110 -51 -114 -52 -114
-36 0 5 6 7 13 3 9 -5 9 -4 -1 7 -10 10 -19 11 -42 2 -39 -15 -47 0 -13 23 24
15 25 18 9 24 -14 5 -5 12 41 33 121 54 133 58 127 43 -7 -17 47 -16 68 1 8 7
17 10 21 7 3 -3 8 4 12 17 6 17 9 19 16 8 7 -11 9 -10 9 5 0 15 -5 17 -27 12
-16 -4 26 23 92 58 66 36 121 66 122 66 0 0 -1 -9 -4 -20z m-880 -27 c-7 -2
-19 -2 -25 0 -7 3 -2 5 12 5 14 0 19 -2 13 -5z m-115 -106 l83 -43 -40 -24
c-21 -14 -37 -28 -34 -32 2 -5 -7 -4 -20 1 -41 16 -167 81 -167 86 0 3 9 1 19
-5 16 -8 22 -6 29 7 14 24 45 27 37 3 -7 -23 3 -29 35 -19 14 4 19 7 12 8 -7
1 -10 6 -7 11 3 6 3 15 -1 21 -4 8 -9 7 -15 -2 -7 -11 -9 -10 -9 3 0 9 -6 19
-12 21 -7 3 -8 6 -3 6 6 0 47 -19 93 -42z m345 -6 c3 -11 -1 -22 -8 -24 -8 -4
-10 3 -7 19 5 29 8 30 15 5z m24 -46 c-4 -8 -14 -14 -24 -14 -17 1 -17 2 0 6
9 2 17 12 17 20 0 9 3 14 6 10 4 -3 4 -13 1 -22z m-88 -75 c55 -24 76 -28 90
-20 27 14 34 13 27 -5 -4 -12 0 -14 19 -11 15 3 23 1 20 -5 -4 -5 -10 -7 -15
-4 -13 8 -22 -26 -10 -40 8 -9 2 -16 -21 -25 -44 -19 -48 -18 -158 30 l-100
43 24 18 c13 11 30 19 38 19 21 0 31 17 15 23 -7 3 -10 6 -7 6 4 1 39 -13 78
-29z m181 10 c-8 -5 -19 -10 -25 -10 -5 0 -3 5 5 10 8 5 20 10 25 10 6 0 3 -5
-5 -10z m21 -47 c12 -16 12 -17 -2 -6 -9 7 -20 9 -24 5 -5 -4 -5 -1 -1 6 9 16
11 15 27 -5z m36 -8 c0 -8 -4 -15 -9 -15 -10 0 -11 14 -1 23 9 10 10 9 10 -8z
m-72 -35 c3 -5 1 -10 -4 -10 -6 0 -11 5 -11 10 0 6 2 10 4 10 3 0 8 -4 11 -10z"/>
<path d="M5290 2725 c0 -8 7 -15 15 -15 8 0 15 7 15 15 0 8 -7 15 -15 15 -8 0
-15 -7 -15 -15z"/>
<path d="M5022 2688 c6 -18 28 -21 28 -4 0 9 -7 16 -16 16 -9 0 -14 -5 -12
-12z"/>
<path d="M4440 2640 c0 -6 7 -10 15 -10 8 0 15 2 15 4 0 2 -7 6 -15 10 -8 3
-15 1 -15 -4z"/>
<path d="M3900 2929 c0 -14 20 -21 21 -7 0 7 4 5 8 -5 4 -10 11 -18 15 -17 5
1 12 -4 16 -10 5 -8 9 -7 13 5 4 9 3 13 -3 10 -6 -3 -10 0 -10 7 0 11 -2 10
-9 0 -6 -11 -9 -9 -13 5 -5 19 -38 29 -38 12z"/>
<path d="M4065 2880 c-3 -5 -1 -10 4 -10 6 0 11 5 11 10 0 6 -2 10 -4 10 -3 0
-8 -4 -11 -10z"/>
</g>
</svg>
